<svg width="391" height="49" viewBox="0 0 391 49" fill="none" xmlns="http://www.w3.org/2000/svg">
<path d="M0.375 2.0625C5.04167 2.22917 8.6875 2.3125 11.3125 2.3125C29.1875 2.20833 39.0833 2.125 41 2.0625C41.2708 4.14583 41.8021 6.125 42.5938 8C43.3854 9.85417 44.3958 11.8333 45.625 13.9375C45.4583 14.2917 45.0938 14.5729 44.5312 14.7812C43.7812 13.3646 42.875 12.1042 41.8125 11C40.75 9.89583 39.4062 8.85417 37.7812 7.875C36.1771 6.89583 34.1667 6.09375 31.75 5.46875C29.3542 4.84375 26.6146 4.42708 23.5312 4.21875H14.9062C14.6354 13.0312 14.5 19.6667 14.5 24.125H23.4062C24.0104 24.125 24.5729 24.0833 25.0938 24C25.6354 23.8958 26.1354 23.7292 26.5938 23.5C27.0521 23.25 27.4583 23.0208 27.8125 22.8125C28.1875 22.5833 28.5625 22.25 28.9375 21.8125C29.3125 21.3542 29.625 20.9792 29.875 20.6875C30.125 20.375 30.4271 19.9062 30.7812 19.2812C31.1354 18.6562 31.4062 18.1667 31.5938 17.8125C31.7812 17.4583 32.0625 16.9062 32.4375 16.1562C32.8333 15.4062 33.1354 14.8438 33.3438 14.4688C33.9896 14.7188 34.3854 14.9896 34.5312 15.2812C33.6562 16.8229 32.9167 18.5312 32.3125 20.4062C31.7083 22.2812 31.4062 23.8438 31.4062 25.0938C31.4062 28.0521 32.4479 31.3125 34.5312 34.875C34.3646 35.2083 33.9688 35.4896 33.3438 35.7188C33.1146 35.3021 32.7917 34.7083 32.375 33.9375C31.9792 33.1458 31.6667 32.5417 31.4375 32.125C31.2083 31.7083 30.8958 31.1771 30.5 30.5312C30.1042 29.8854 29.75 29.3854 29.4375 29.0312C29.1458 28.6771 28.7604 28.2812 28.2812 27.8438C27.8229 27.4062 27.3646 27.0833 26.9062 26.875C26.4479 26.6458 25.9167 26.4583 25.3125 26.3125C24.7292 26.1458 24.0938 26.0625 23.4062 26.0625H14.5C14.5 29.375 14.6146 36.0521 14.8438 46.0938H24.8125C27.8958 45.8854 30.6354 45.4688 33.0312 44.8438C35.4479 44.2188 37.4583 43.4167 39.0625 42.4375C40.6875 41.4583 42.0312 40.4167 43.0938 39.3125C44.1562 38.2083 45.0625 36.9479 45.8125 35.5312C46.375 35.7396 46.7396 36.0104 46.9062 36.3438C46.8021 36.5521 46.5312 37.0521 46.0938 37.8438C45.6562 38.6354 45.3646 39.1771 45.2188 39.4688C45.0729 39.7396 44.8229 40.2292 44.4688 40.9375C44.1354 41.625 43.8854 42.1875 43.7188 42.625C43.5521 43.0417 43.3542 43.5729 43.125 44.2188C42.9167 44.8646 42.7396 45.5 42.5938 46.125C42.4688 46.7292 42.3646 47.3542 42.2812 48H14.8438C9.19792 48 4.35417 48.0625 0.3125 48.1875C0.229167 47.9375 0.1875 47.7292 0.1875 47.5625C0.1875 47.4167 0.229167 47.1354 0.3125 46.7188C1.27083 46.6354 2.04167 46.5521 2.625 46.4688C3.22917 46.3646 3.95833 46.2083 4.8125 46C5.6875 45.7917 6.35417 45.5 6.8125 45.125C7.27083 44.7292 7.51042 44.2604 7.53125 43.7188C7.78125 37.1979 7.90625 30.625 7.90625 24C7.90625 17.25 7.80208 11.4271 7.59375 6.53125C7.57292 5.98958 7.33333 5.53125 6.875 5.15625C6.41667 4.76042 5.75 4.45833 4.875 4.25C4.02083 4.04167 3.29167 3.89583 2.6875 3.8125C2.10417 3.70833 1.33333 3.61458 0.375 3.53125C0.291667 3.15625 0.25 2.89583 0.25 2.75C0.25 2.625 0.291667 2.39583 0.375 2.0625ZM50.5625 22.2812C54.6042 21.8646 58.125 21.0104 61.125 19.7188C61.6458 19.9271 62.0104 20.1979 62.2188 20.5312V25.9062C62.9896 24.4479 64.1354 23.0312 65.6562 21.6562C67.1979 20.2812 68.8021 19.5938 70.4688 19.5938C71.7188 19.5938 72.7292 19.9688 73.5 20.7188C74.2917 21.4479 74.6875 22.4583 74.6875 23.75C74.6875 24.9792 74.3229 25.9375 73.5938 26.625C72.8646 27.3125 71.9479 27.6562 70.8438 27.6562C69.8229 27.6562 68.9792 27.3333 68.3125 26.6875C67.6667 26.0208 67.3125 25.1458 67.25 24.0625C66.375 24.4375 65.375 25.2708 64.25 26.5625C63.1458 27.8542 62.4688 29.1354 62.2188 30.4062C62.2188 35.0521 62.3021 39.4896 62.4688 43.7188C62.4896 44.2604 62.6875 44.7292 63.0625 45.125C63.4375 45.5 63.9896 45.7917 64.7188 46C65.4479 46.2083 66.0521 46.3646 66.5312 46.4688C67.0104 46.5521 67.6354 46.6354 68.4062 46.7188C68.5312 46.9688 68.5938 47.2292 68.5938 47.5C68.5938 47.7083 68.5312 47.9375 68.4062 48.1875C65.2812 48.0625 62.1875 48 59.125 48C56.5833 48 53.9375 48.0625 51.1875 48.1875C51.1042 47.8542 51.0625 47.625 51.0625 47.5C51.0625 47.3958 51.1042 47.1354 51.1875 46.7188C51.875 46.6354 52.4375 46.5521 52.875 46.4688C53.3125 46.3646 53.8542 46.2083 54.5 46C55.1458 45.7917 55.6354 45.5 55.9688 45.125C56.3021 44.7292 56.4792 44.2604 56.5 43.7188C56.5833 41.6562 56.625 39.1562 56.625 36.2188C56.625 35.2396 56.6146 33.5729 56.5938 31.2188C56.5729 28.8646 56.5625 26.8021 56.5625 25.0312C55.375 24.3021 53.375 23.875 50.5625 23.75C50.4792 23.4167 50.4375 23.1562 50.4375 22.9688C50.4375 22.8438 50.4792 22.6146 50.5625 22.2812ZM78.6875 22.2812C82.7292 21.8646 86.25 21.0104 89.25 19.7188C89.7708 19.9271 90.1354 20.1979 90.3438 20.5312C90.3438 31.3438 90.4271 39.0729 90.5938 43.7188C90.6146 44.2604 90.7708 44.7292 91.0625 45.125C91.375 45.5 91.8125 45.7917 92.375 46C92.9375 46.2083 93.4062 46.3646 93.7812 46.4688C94.1562 46.5521 94.6458 46.6354 95.25 46.7188C95.375 46.9688 95.4375 47.2292 95.4375 47.5C95.4375 47.7708 95.375 48 95.25 48.1875C92.5 48.0625 89.8333 48 87.25 48C84.7083 48 82.0625 48.0625 79.3125 48.1875C79.2292 47.8542 79.1875 47.625 79.1875 47.5C79.1875 47.3958 79.2292 47.1354 79.3125 46.7188C80 46.6354 80.5625 46.5521 81 46.4688C81.4375 46.3646 81.9792 46.2083 82.625 46C83.2708 45.7917 83.7604 45.5 84.0938 45.125C84.4271 44.7292 84.6042 44.2604 84.625 43.7188C84.7083 41.6562 84.75 39.1562 84.75 36.2188C84.75 35.2396 84.7396 33.5729 84.7188 31.2188C84.6979 28.8646 84.6875 26.8021 84.6875 25.0312C83.5 24.3021 81.5 23.875 78.6875 23.75C78.6042 23.4167 78.5625 23.1562 78.5625 22.9688C78.5625 22.8438 78.6042 22.6146 78.6875 22.2812ZM83.5938 9.21875C83.5938 8.15625 83.9688 7.25 84.7188 6.5C85.4896 5.75 86.3958 5.375 87.4375 5.375C88.5 5.375 89.4062 5.75 90.1562 6.5C90.9062 7.25 91.2812 8.15625 91.2812 9.21875C91.2812 10.2604 90.9062 11.1667 90.1562 11.9375C89.4062 12.6875 88.5 13.0625 87.4375 13.0625C86.3958 13.0625 85.4896 12.6875 84.7188 11.9375C83.9688 11.1667 83.5938 10.2604 83.5938 9.21875ZM124.969 39.875C125.469 39.9792 125.875 40.2083 126.188 40.5625C125.146 43.3542 123.531 45.4479 121.344 46.8438C119.156 48.2188 116.781 48.9062 114.219 48.9062C112.948 48.9062 111.708 48.7396 110.5 48.4062C109.292 48.0938 108.115 47.5729 106.969 46.8438C105.844 46.1146 104.854 45.2188 104 44.1562C103.167 43.0729 102.49 41.7292 101.969 40.125C101.469 38.5 101.219 36.7083 101.219 34.75C101.219 30.2292 102.604 26.5729 105.375 23.7812C108.146 20.9896 111.604 19.5938 115.75 19.5938C118.667 19.5938 121.042 20.2292 122.875 21.5C124.729 22.75 125.656 24.3542 125.656 26.3125C125.656 27.4167 125.292 28.3333 124.562 29.0625C123.833 29.7917 122.938 30.1562 121.875 30.1562C120.75 30.1562 119.844 29.8333 119.156 29.1875C118.469 28.5208 118.125 27.75 118.125 26.875C118.125 25.2917 118.927 24.2917 120.531 23.875C120.385 23.3958 119.917 22.9062 119.125 22.4062C118.333 21.8854 117.208 21.625 115.75 21.625C115 21.625 114.292 21.7188 113.625 21.9062C112.958 22.0729 112.24 22.4375 111.469 23C110.719 23.5625 110.073 24.3021 109.531 25.2188C109.01 26.1354 108.573 27.4167 108.219 29.0625C107.865 30.6875 107.688 32.5833 107.688 34.75C107.688 36.2083 107.833 37.5312 108.125 38.7188C108.438 39.9062 108.917 40.9792 109.562 41.9375C110.208 42.8958 111.094 43.6458 112.219 44.1875C113.344 44.7292 114.667 45 116.188 45C117.146 45 118.052 44.875 118.906 44.625C119.76 44.3542 120.448 44.0729 120.969 43.7812C121.51 43.4896 122.083 43.0521 122.688 42.4688C123.312 41.8646 123.729 41.4375 123.938 41.1875C124.146 40.9167 124.49 40.4792 124.969 39.875ZM149.875 46.7188C151.708 46.5312 152.625 46.0417 152.625 45.25C152.625 44.7917 152.396 44.2812 151.938 43.7188L143.406 32.7812H141.875C141.875 37.7604 141.938 41.4062 142.062 43.7188C142.062 44.2604 142.198 44.7292 142.469 45.125C142.76 45.5 143.177 45.7917 143.719 46C144.281 46.2083 144.74 46.3646 145.094 46.4688C145.469 46.5521 145.958 46.6354 146.562 46.7188C146.688 46.9688 146.75 47.2292 146.75 47.5C146.75 47.7708 146.688 48 146.562 48.1875C143.812 48.0625 141.208 48 138.75 48C136.208 48 133.562 48.0625 130.812 48.1875C130.729 47.8542 130.688 47.625 130.688 47.5C130.688 47.3958 130.729 47.1354 130.812 46.7188C131.5 46.6354 132.052 46.5521 132.469 46.4688C132.906 46.3646 133.448 46.2083 134.094 46C134.76 45.7917 135.26 45.5 135.594 45.125C135.927 44.7292 136.104 44.2604 136.125 43.7188C136.208 41.6562 136.24 35.1562 136.219 24.2188C136.198 13.2604 136.188 7.125 136.188 5.8125C135 5.125 133 4.69792 130.188 4.53125C130.083 4.26042 130.031 4.01042 130.031 3.78125C130.031 3.57292 130.083 3.33333 130.188 3.0625C134.146 2.6875 137.656 1.83333 140.719 0.5C141.281 0.729167 141.646 1.01042 141.812 1.34375L141.875 30.7812H143.5L149.812 24.7812C150.208 24.3229 150.406 23.8542 150.406 23.375C150.406 22.5 149.417 21.9583 147.438 21.75C147.354 21.4167 147.312 21.1875 147.312 21.0625C147.312 20.875 147.354 20.6146 147.438 20.2812C150.146 20.4062 152.302 20.4688 153.906 20.4688C155.656 20.4688 157.875 20.4062 160.562 20.2812C160.646 20.5312 160.688 20.75 160.688 20.9375C160.688 21.0625 160.646 21.3333 160.562 21.75C158.708 21.9583 157.177 22.2708 155.969 22.6875C154.76 23.0833 153.667 23.7812 152.688 24.7812L147.719 29.8125L158.719 43.7188C159.969 45.3438 161.844 46.3438 164.344 46.7188C164.427 47.1354 164.469 47.4167 164.469 47.5625C164.469 47.7292 164.427 47.9375 164.344 48.1875C161.656 48.0625 159.229 48 157.062 48C154.958 48 152.562 48.0625 149.875 48.1875C149.792 47.8542 149.75 47.6042 149.75 47.4375C149.75 47.2917 149.792 47.0521 149.875 46.7188ZM204.406 1.59375C204.719 1.36458 205.052 1.21875 205.406 1.15625L222.5 43.8438C222.708 44.3646 223.052 44.8125 223.531 45.1875C224.01 45.5417 224.604 45.8229 225.312 46.0312C226.042 46.2188 226.667 46.3646 227.188 46.4688C227.729 46.5521 228.385 46.6354 229.156 46.7188C229.24 47.0521 229.281 47.3333 229.281 47.5625C229.281 47.8125 229.24 48.0417 229.156 48.25C224.656 48.0833 221.292 48 219.062 48C216.646 48 213.146 48.0833 208.562 48.25C208.479 48 208.438 47.75 208.438 47.5C208.438 47.2292 208.479 46.9688 208.562 46.7188C212.771 46.2604 214.875 45.4688 214.875 44.3438C214.875 43.9896 214.833 43.625 214.75 43.25L210.219 31.625C208.844 31.5833 206.99 31.5625 204.656 31.5625C203.552 31.5625 200.688 31.6042 196.062 31.6875L191.281 43.8438V44.2188C191.281 44.4271 191.312 44.625 191.375 44.8125C191.458 45 191.583 45.1667 191.75 45.3125C191.938 45.4583 192.115 45.5833 192.281 45.6875C192.448 45.7917 192.677 45.8958 192.969 46C193.281 46.0833 193.542 46.1562 193.75 46.2188C193.979 46.2604 194.281 46.3125 194.656 46.375C195.052 46.4375 195.354 46.4896 195.562 46.5312C195.771 46.5521 196.073 46.5833 196.469 46.625C196.885 46.6667 197.177 46.6979 197.344 46.7188C197.427 47.0521 197.469 47.3333 197.469 47.5625C197.469 47.6875 197.427 47.9167 197.344 48.25C192.677 48.0833 190.052 48 189.469 48C188.344 48 185.448 48.0833 180.781 48.25C180.698 48 180.656 47.75 180.656 47.5C180.656 47.2292 180.698 46.9688 180.781 46.7188C185.115 46.2188 187.583 45.1562 188.188 43.5312L201.625 9.65625L200.938 7.8125C202.125 7.02083 202.948 6.16667 203.406 5.25C203.885 4.33333 204.219 3.11458 204.406 1.59375ZM204.656 29.125C206.573 29.125 208.083 29.1042 209.188 29.0625L203.25 13.6875H203.125L197.156 29C199.115 29.0833 201.615 29.125 204.656 29.125ZM249.5 46.7188C249.625 46.9688 249.688 47.2292 249.688 47.5C249.688 47.7083 249.625 47.9375 249.5 48.1875C246.75 48.0625 244.083 48 241.5 48C238.958 48 236.312 48.0625 233.562 48.1875C233.479 47.8542 233.438 47.625 233.438 47.5C233.438 47.3958 233.479 47.1354 233.562 46.7188C234.25 46.6354 234.812 46.5521 235.25 46.4688C235.688 46.3646 236.229 46.2083 236.875 46C237.521 45.7917 238.01 45.5 238.344 45.125C238.677 44.7292 238.854 44.2604 238.875 43.7188C238.958 41.6562 239 39.1562 239 36.2188C239 35.2396 238.99 33.5729 238.969 31.2188C238.948 28.8646 238.938 26.8021 238.938 25.0312C237.75 24.3021 235.75 23.875 232.938 23.75C232.854 23.4167 232.812 23.1562 232.812 22.9688C232.812 22.8438 232.854 22.6146 232.938 22.2812C236.979 21.8646 240.5 21.0104 243.5 19.7188C244.021 19.9271 244.385 20.1979 244.594 20.5312V25.4688C246.615 23.6979 248.552 22.2812 250.406 21.2188C252.26 20.1354 254.135 19.5938 256.031 19.5938C258.406 19.5938 260.083 20.2604 261.062 21.5938C262.062 22.9271 262.583 25.0104 262.625 27.8438L262.938 43.7188C262.958 44.2604 263.115 44.7292 263.406 45.125C263.719 45.5 264.156 45.7917 264.719 46C265.302 46.2083 265.781 46.3646 266.156 46.4688C266.531 46.5521 267.021 46.6354 267.625 46.7188C267.708 47.1354 267.75 47.4167 267.75 47.5625C267.75 47.7292 267.708 47.9375 267.625 48.1875C264.938 48.0625 262.458 48 260.188 48C257.979 48 255.531 48.0625 252.844 48.1875C252.76 47.8542 252.719 47.6042 252.719 47.4375C252.719 47.2917 252.76 47.0521 252.844 46.7188C253.385 46.6354 253.833 46.5521 254.188 46.4688C254.562 46.3646 254.979 46.2083 255.438 46C255.917 45.7917 256.271 45.5 256.5 45.125C256.75 44.7292 256.875 44.2604 256.875 43.7188L256.938 28.875C256.938 25.1042 255.802 23.2188 253.531 23.2188C251.406 23.2188 248.427 24.6354 244.594 27.4688C244.594 33.5312 244.677 38.9479 244.844 43.7188C244.865 44.2604 245.021 44.7292 245.312 45.125C245.625 45.5 246.062 45.7917 246.625 46C247.188 46.2083 247.656 46.3646 248.031 46.4688C248.406 46.5521 248.896 46.6354 249.5 46.7188ZM287.688 3.0625C291.625 2.6875 295.146 1.83333 298.25 0.5C298.792 0.729167 299.146 1.01042 299.312 1.34375C299.312 24.9479 299.406 39.0729 299.594 43.7188C299.615 44.2604 299.771 44.7292 300.062 45.125C300.375 45.5 300.812 45.7917 301.375 46C301.938 46.2083 302.406 46.3646 302.781 46.4688C303.156 46.5521 303.646 46.6354 304.25 46.7188C304.333 47.0521 304.375 47.3125 304.375 47.5C304.375 47.625 304.333 47.8542 304.25 48.1875C303.521 48.1458 302.771 48.1042 302 48.0625C301.25 48.0208 300.656 47.9896 300.219 47.9688C299.781 47.9479 299.375 47.9375 299 47.9375C298.688 47.9375 298.333 47.9479 297.938 47.9688C297.542 47.9896 297 48.0208 296.312 48.0625C295.625 48.1042 294.948 48.1458 294.281 48.1875C294.177 48.1458 294.083 48.0938 294 48.0312C293.938 47.9896 293.885 47.9583 293.844 47.9375C293.823 47.8958 293.792 47.8438 293.75 47.7812C293.708 47.6979 293.677 47.6458 293.656 47.625C293.635 47.6042 293.604 47.5417 293.562 47.4375C293.542 47.3125 293.521 47.2396 293.5 47.2188C293.583 46.7188 293.625 45.5938 293.625 43.8438C290.188 47.2188 287.01 48.9062 284.094 48.9062C280.885 48.9062 278.271 47.6979 276.25 45.2812C274.229 42.8646 273.219 39.5729 273.219 35.4062C273.219 33.9688 273.385 32.5312 273.719 31.0938C274.052 29.6562 274.604 28.2396 275.375 26.8438C276.146 25.4479 277.094 24.2188 278.219 23.1562C279.344 22.0938 280.771 21.2396 282.5 20.5938C284.229 19.9271 286.146 19.5938 288.25 19.5938C289.812 19.5938 291.646 19.9271 293.75 20.5938C293.708 16.6354 293.688 11.7083 293.688 5.8125C292.5 5.125 290.5 4.69792 287.688 4.53125C287.604 4.19792 287.562 3.94792 287.562 3.78125C287.562 3.63542 287.604 3.39583 287.688 3.0625ZM287.094 44.8125C289.177 44.8125 291.375 43.6979 293.688 41.4688C293.729 39.4271 293.75 35.5625 293.75 29.875V25.3438C292.312 22.8646 290.115 21.625 287.156 21.625C286.531 21.625 285.906 21.7188 285.281 21.9062C284.656 22.0938 283.99 22.4688 283.281 23.0312C282.573 23.5938 281.948 24.3125 281.406 25.1875C280.885 26.0625 280.448 27.2812 280.094 28.8438C279.74 30.3854 279.562 32.1667 279.562 34.1875C279.562 37.2708 280.198 39.8125 281.469 41.8125C282.76 43.8125 284.635 44.8125 287.094 44.8125ZM309 22.2812C313.042 21.8646 316.562 21.0104 319.562 19.7188C320.083 19.9271 320.448 20.1979 320.656 20.5312V25.9062C321.427 24.4479 322.573 23.0312 324.094 21.6562C325.635 20.2812 327.24 19.5938 328.906 19.5938C330.156 19.5938 331.167 19.9688 331.938 20.7188C332.729 21.4479 333.125 22.4583 333.125 23.75C333.125 24.9792 332.76 25.9375 332.031 26.625C331.302 27.3125 330.385 27.6562 329.281 27.6562C328.26 27.6562 327.417 27.3333 326.75 26.6875C326.104 26.0208 325.75 25.1458 325.688 24.0625C324.812 24.4375 323.812 25.2708 322.688 26.5625C321.583 27.8542 320.906 29.1354 320.656 30.4062C320.656 35.0521 320.74 39.4896 320.906 43.7188C320.927 44.2604 321.125 44.7292 321.5 45.125C321.875 45.5 322.427 45.7917 323.156 46C323.885 46.2083 324.49 46.3646 324.969 46.4688C325.448 46.5521 326.073 46.6354 326.844 46.7188C326.969 46.9688 327.031 47.2292 327.031 47.5C327.031 47.7083 326.969 47.9375 326.844 48.1875C323.719 48.0625 320.625 48 317.562 48C315.021 48 312.375 48.0625 309.625 48.1875C309.542 47.8542 309.5 47.625 309.5 47.5C309.5 47.3958 309.542 47.1354 309.625 46.7188C310.312 46.6354 310.875 46.5521 311.312 46.4688C311.75 46.3646 312.292 46.2083 312.938 46C313.583 45.7917 314.073 45.5 314.406 45.125C314.74 44.7292 314.917 44.2604 314.938 43.7188C315.021 41.6562 315.062 39.1562 315.062 36.2188C315.062 35.2396 315.052 33.5729 315.031 31.2188C315.01 28.8646 315 26.8021 315 25.0312C313.812 24.3021 311.812 23.875 309 23.75C308.917 23.4167 308.875 23.1562 308.875 22.9688C308.875 22.8438 308.917 22.6146 309 22.2812ZM361.625 31.4375H344.594C344.51 32.6875 344.469 33.7917 344.469 34.75C344.531 37.8542 345.438 40.3438 347.188 42.2188C348.938 44.0729 351.281 45 354.219 45C355.01 45 355.75 44.9167 356.438 44.75C357.125 44.5625 357.688 44.3542 358.125 44.125C358.583 43.8958 359.052 43.5625 359.531 43.125C360.01 42.6875 360.354 42.3438 360.562 42.0938C360.792 41.8229 361.094 41.4271 361.469 40.9062C361.844 40.3646 362.094 40.0208 362.219 39.875C362.719 39.9792 363.125 40.2083 363.438 40.5625C362.396 43.3542 360.781 45.4479 358.594 46.8438C356.406 48.2188 354.031 48.9062 351.469 48.9062C350.198 48.9062 348.958 48.7396 347.75 48.4062C346.562 48.0938 345.406 47.5729 344.281 46.8438C343.156 46.1146 342.177 45.2188 341.344 44.1562C340.51 43.0729 339.844 41.7292 339.344 40.125C338.844 38.5 338.594 36.7083 338.594 34.75C338.594 30.3542 339.938 26.7292 342.625 23.875C345.312 21.0208 348.615 19.5938 352.531 19.5938C354.26 19.5938 355.76 19.8438 357.031 20.3438C358.323 20.8229 359.323 21.4792 360.031 22.3125C360.76 23.1458 361.292 24.0625 361.625 25.0625C361.979 26.0417 362.156 27.0938 362.156 28.2188C362.156 29.2604 361.979 30.3333 361.625 31.4375ZM351.781 21.625C350.344 21.625 348.979 22.2604 347.688 23.5312C346.417 24.8021 345.5 26.7292 344.938 29.3125H356.188C356.396 28.5208 356.5 27.8333 356.5 27.25C356.5 25.625 356.125 24.2812 355.375 23.2188C354.625 22.1562 353.427 21.625 351.781 21.625ZM380.469 48.9062C379.448 48.9062 378.521 48.8229 377.688 48.6562C376.875 48.4896 376.24 48.3125 375.781 48.125C375.344 47.9375 374.75 47.6562 374 47.2812C373.188 47.2812 371.99 47.5833 370.406 48.1875C370.135 48.0208 369.948 47.8333 369.844 47.625C369.948 47.2917 370.073 46.1562 370.219 44.2188C370.385 42.2812 370.469 40.5521 370.469 39.0312C370.74 38.9062 371.229 38.8438 371.938 38.8438C372.312 40.0521 372.698 41.0833 373.094 41.9375C373.51 42.7917 374.031 43.625 374.656 44.4375C375.302 45.2292 376.073 45.8333 376.969 46.25C377.885 46.6458 378.927 46.8438 380.094 46.8438C381.906 46.8438 383.323 46.375 384.344 45.4375C385.385 44.5 385.906 43.4375 385.906 42.25C385.906 41.3542 385.76 40.5938 385.469 39.9688C385.177 39.3438 384.521 38.6875 383.5 38C382.5 37.2917 381.062 36.5938 379.188 35.9062C378.021 35.4896 377.031 35.1042 376.219 34.75C375.406 34.3958 374.562 33.9583 373.688 33.4375C372.833 32.9167 372.146 32.3854 371.625 31.8438C371.104 31.2812 370.677 30.6146 370.344 29.8438C370.01 29.0729 369.844 28.2292 369.844 27.3125C369.844 26.6458 369.917 25.9896 370.062 25.3438C370.229 24.6771 370.531 23.9896 370.969 23.2812C371.427 22.5729 371.99 21.9583 372.656 21.4375C373.344 20.8958 374.25 20.4583 375.375 20.125C376.521 19.7708 377.812 19.5938 379.25 19.5938C379.833 19.5938 380.344 19.625 380.781 19.6875C381.24 19.75 381.781 19.8646 382.406 20.0312C383.052 20.1771 383.406 20.2604 383.469 20.2812C383.927 20.1771 384.396 20.0417 384.875 19.875C385.375 19.7083 385.656 19.6146 385.719 19.5938H386.531C387.031 22.5938 387.677 25.1458 388.469 27.25C388.219 27.5208 387.812 27.6562 387.25 27.6562C385.521 25.5729 384.042 24.0521 382.812 23.0938C381.604 22.1146 380.229 21.625 378.688 21.625C377.479 21.625 376.417 21.8958 375.5 22.4375C374.583 22.9792 374.125 23.8021 374.125 24.9062C374.125 26.3021 374.677 27.3958 375.781 28.1875C376.906 28.9792 378.979 29.9896 382 31.2188C383.396 31.7812 384.49 32.25 385.281 32.625C386.094 33 386.906 33.4479 387.719 33.9688C388.531 34.4896 389.125 35.0312 389.5 35.5938C389.896 36.1354 390.219 36.7917 390.469 37.5625C390.719 38.3333 390.844 39.2292 390.844 40.25C390.844 42.4583 389.823 44.4583 387.781 46.25C385.76 48.0208 383.323 48.9062 380.469 48.9062Z" fill="#70a5fd"/>
</svg>
