<svg width="815" height="48" viewBox="0 0 815 48" fill="none" xmlns="http://www.w3.org/2000/svg">
<path d="M20.3711 11.1602C22.9961 11.2539 25.0469 11.3008 26.5234 11.3008C36.5781 11.2422 42.1445 11.1953 43.2227 11.1602C43.375 12.332 43.6738 13.4453 44.1191 14.5C44.5645 15.543 45.1328 16.6562 45.8242 17.8398C45.7305 18.0391 45.5254 18.1973 45.209 18.3145C44.7871 17.5176 44.2773 16.8086 43.6797 16.1875C43.082 15.5664 42.3262 14.9805 41.4121 14.4297C40.5098 13.8789 39.3789 13.4277 38.0195 13.0762C36.6719 12.7246 35.1309 12.4902 33.3965 12.373H28.5449C28.3926 17.3301 28.3164 21.0625 28.3164 23.5703H33.3262C33.666 23.5703 33.9824 23.5469 34.2754 23.5C34.5801 23.4414 34.8613 23.3477 35.1191 23.2188C35.377 23.0781 35.6055 22.9492 35.8047 22.832C36.0156 22.7031 36.2266 22.5156 36.4375 22.2695C36.6484 22.0117 36.8242 21.8008 36.9648 21.6367C37.1055 21.4609 37.2754 21.1973 37.4746 20.8457C37.6738 20.4941 37.8262 20.2188 37.9316 20.0195C38.0371 19.8203 38.1953 19.5098 38.4062 19.0879C38.6289 18.666 38.7988 18.3496 38.916 18.1387C39.2793 18.2793 39.502 18.4316 39.584 18.5957C39.0918 19.4629 38.6758 20.4238 38.3359 21.4785C37.9961 22.5332 37.8262 23.4121 37.8262 24.1152C37.8262 25.7793 38.4121 27.6133 39.584 29.6172C39.4902 29.8047 39.2676 29.9629 38.916 30.0918C38.7871 29.8574 38.6055 29.5234 38.3711 29.0898C38.1484 28.6445 37.9727 28.3047 37.8438 28.0703C37.7148 27.8359 37.5391 27.5371 37.3164 27.1738C37.0938 26.8105 36.8945 26.5293 36.7188 26.3301C36.5547 26.1309 36.3379 25.9082 36.0684 25.6621C35.8105 25.416 35.5527 25.2344 35.2949 25.1172C35.0371 24.9883 34.7383 24.8828 34.3984 24.8008C34.0703 24.707 33.7129 24.6602 33.3262 24.6602H28.3164C28.3164 26.5234 28.3809 30.2793 28.5098 35.9277H34.1172C35.8516 35.8105 37.3926 35.5762 38.7402 35.2246C40.0996 34.873 41.2305 34.4219 42.1328 33.8711C43.0469 33.3203 43.8027 32.7344 44.4004 32.1133C44.998 31.4922 45.5078 30.7832 45.9297 29.9863C46.2461 30.1035 46.4512 30.2559 46.5449 30.4434C46.4863 30.5605 46.334 30.8418 46.0879 31.2871C45.8418 31.7324 45.6777 32.0371 45.5957 32.2012C45.5137 32.3535 45.373 32.6289 45.1738 33.0273C44.9863 33.4141 44.8457 33.7305 44.752 33.9766C44.6582 34.2109 44.5469 34.5098 44.418 34.873C44.3008 35.2363 44.2012 35.5938 44.1191 35.9453C44.0488 36.2852 43.9902 36.6367 43.9434 37H28.5098C25.334 37 22.6094 37.0352 20.3359 37.1055C20.2891 36.9648 20.2656 36.8477 20.2656 36.7539C20.2656 36.6719 20.2891 36.5137 20.3359 36.2793C20.875 36.2324 21.3086 36.1855 21.6367 36.1387C21.9766 36.0801 22.3867 35.9922 22.8672 35.875C23.3594 35.7578 23.7344 35.5938 23.9922 35.3828C24.25 35.1602 24.3848 34.8965 24.3965 34.5918C24.5371 30.9238 24.6074 27.2266 24.6074 23.5C24.6074 19.7031 24.5488 16.4277 24.4316 13.6738C24.4199 13.3691 24.2852 13.1113 24.0273 12.9004C23.7695 12.6777 23.3945 12.5078 22.9023 12.3906C22.4219 12.2734 22.0117 12.1914 21.6719 12.1445C21.3438 12.0859 20.9102 12.0332 20.3711 11.9863C20.3242 11.7754 20.3008 11.6289 20.3008 11.5469C20.3008 11.4766 20.3242 11.3477 20.3711 11.1602ZM55.4043 37.5098C54.8301 37.5098 54.3086 37.4629 53.8398 37.3691C53.3828 37.2754 53.0254 37.1758 52.7676 37.0703C52.5215 36.9648 52.1875 36.8066 51.7656 36.5957C51.3086 36.5957 50.6348 36.7656 49.7441 37.1055C49.5918 37.0117 49.4863 36.9062 49.4277 36.7891C49.4863 36.6016 49.5566 35.9629 49.6387 34.873C49.7324 33.7832 49.7793 32.8105 49.7793 31.9551C49.9316 31.8848 50.207 31.8496 50.6055 31.8496C50.8164 32.5293 51.0332 33.1094 51.2559 33.5898C51.4902 34.0703 51.7832 34.5391 52.1348 34.9961C52.498 35.4414 52.9316 35.7812 53.4355 36.0156C53.9512 36.2383 54.5371 36.3496 55.1934 36.3496C56.2129 36.3496 57.0098 36.0859 57.584 35.5586C58.1699 35.0312 58.4629 34.4336 58.4629 33.7656C58.4629 33.2617 58.3809 32.834 58.2168 32.4824C58.0527 32.1309 57.6836 31.7617 57.1094 31.375C56.5469 30.9766 55.7383 30.584 54.6836 30.1973C54.0273 29.9629 53.4707 29.7461 53.0137 29.5469C52.5566 29.3477 52.082 29.1016 51.5898 28.8086C51.1094 28.5156 50.7227 28.2168 50.4297 27.9121C50.1367 27.5957 49.8965 27.2207 49.709 26.7871C49.5215 26.3535 49.4277 25.8789 49.4277 25.3633C49.4277 24.9883 49.4688 24.6191 49.5508 24.2559C49.6445 23.8809 49.8145 23.4941 50.0605 23.0957C50.3184 22.6973 50.6348 22.3516 51.0098 22.0586C51.3965 21.7539 51.9062 21.5078 52.5391 21.3203C53.1836 21.1211 53.9102 21.0215 54.7188 21.0215C55.0469 21.0215 55.334 21.0391 55.5801 21.0742C55.8379 21.1094 56.1426 21.1738 56.4941 21.2676C56.8574 21.3496 57.0566 21.3965 57.0918 21.4082C57.3496 21.3496 57.6133 21.2734 57.8828 21.1797C58.1641 21.0859 58.3223 21.0332 58.3574 21.0215H58.8145C59.0957 22.709 59.459 24.1445 59.9043 25.3281C59.7637 25.4805 59.5352 25.5566 59.2188 25.5566C58.2461 24.3848 57.4141 23.5293 56.7227 22.9902C56.043 22.4395 55.2695 22.1641 54.4023 22.1641C53.7227 22.1641 53.125 22.3164 52.6094 22.6211C52.0938 22.9258 51.8359 23.3887 51.8359 24.0098C51.8359 24.7949 52.1465 25.4102 52.7676 25.8555C53.4004 26.3008 54.5664 26.8691 56.2656 27.5605C57.0508 27.877 57.666 28.1406 58.1113 28.3516C58.5684 28.5625 59.0254 28.8145 59.4824 29.1074C59.9395 29.4004 60.2734 29.7051 60.4844 30.0215C60.707 30.3262 60.8887 30.6953 61.0293 31.1289C61.1699 31.5625 61.2402 32.0664 61.2402 32.6406C61.2402 33.8828 60.666 35.0078 59.5176 36.0156C58.3809 37.0117 57.0098 37.5098 55.4043 37.5098ZM69.3789 18.0332C69.4961 17.9863 69.6309 17.9629 69.7832 17.9629C69.9355 17.9629 70.0938 17.9863 70.2578 18.0332V21.8828H75.584C75.6543 22.0586 75.6895 22.2754 75.6895 22.5332C75.6895 22.7559 75.6543 22.9609 75.584 23.1484H70.2578V32.5352C70.2578 34.3867 71.1074 35.3125 72.8066 35.3125C73.4512 35.3125 74.002 35.1895 74.459 34.9434C74.9277 34.6973 75.4434 34.3281 76.0059 33.8359C76.2988 33.8711 76.4922 34.0117 76.5859 34.2578C76.0703 35.1836 75.3086 35.957 74.3008 36.5781C73.293 37.1992 72.1855 37.5098 70.9785 37.5098C68.1426 37.5098 66.7246 35.793 66.7246 32.3594V23.1484H64.5625C64.5156 22.9375 64.4922 22.8027 64.4922 22.7441C64.4922 22.7324 64.5156 22.5977 64.5625 22.3398C65.125 22.0586 65.5527 21.8301 65.8457 21.6543C66.1504 21.4668 66.5312 21.2031 66.9883 20.8633C67.457 20.5234 67.8789 20.125 68.2539 19.668C68.6406 19.1992 69.0156 18.6543 69.3789 18.0332ZM80.1367 25.4512C80.1367 24.1621 80.7227 23.1016 81.8945 22.2695C83.0781 21.4375 84.4727 21.0215 86.0781 21.0215C88.0469 21.0215 89.4297 21.4141 90.2266 22.1992C91.0352 22.9844 91.4395 24.3086 91.4395 26.1719V33.4668C91.4395 34.123 91.6797 34.4512 92.1602 34.4512C92.5469 34.4512 93.0391 33.9824 93.6367 33.0449C94.0586 33.0801 94.3457 33.2676 94.498 33.6074C94.416 33.7246 94.2754 33.9355 94.0762 34.2402C93.877 34.5449 93.7305 34.7617 93.6367 34.8906C93.543 35.0195 93.3965 35.2188 93.1973 35.4883C92.998 35.7461 92.834 35.9395 92.7051 36.0684C92.5879 36.1973 92.4238 36.3496 92.2129 36.5254C92.0137 36.7012 91.8262 36.8359 91.6504 36.9297C91.4863 37.0117 91.293 37.082 91.0703 37.1406C90.8477 37.2109 90.625 37.2461 90.4023 37.2461C89.8164 37.2461 89.3301 37.0352 88.9434 36.6133C88.5684 36.1914 88.3457 35.541 88.2754 34.6621C88.2637 34.6738 88.082 34.8438 87.7305 35.1719C87.3789 35.5 87.1328 35.7227 86.9922 35.8398C86.8633 35.9453 86.6113 36.1387 86.2363 36.4199C85.873 36.6895 85.5625 36.8828 85.3047 37C85.0469 37.1172 84.7246 37.2285 84.3379 37.334C83.9512 37.4512 83.5703 37.5098 83.1953 37.5098C82.5977 37.5098 82.0645 37.4277 81.5957 37.2637C81.1387 37.0996 80.7812 36.9004 80.5234 36.666C80.2656 36.4316 80.0547 36.1621 79.8906 35.8574C79.7266 35.541 79.6152 35.2539 79.5566 34.9961C79.5098 34.7383 79.4863 34.4805 79.4863 34.2227C79.4863 33.4375 79.6152 32.7754 79.873 32.2363C80.1426 31.6973 80.6348 31.1934 81.3496 30.7246C82.0762 30.2559 82.9668 29.8398 84.0215 29.4766C85.0762 29.1133 86.4941 28.7031 88.2754 28.2461V25.8027C88.2754 24.6191 88.0117 23.7344 87.4844 23.1484C86.9688 22.5625 86.2715 22.2695 85.3926 22.2695C84.6074 22.2695 83.9453 22.4277 83.4062 22.7441C82.8789 23.0488 82.5566 23.4062 82.4395 23.8164C83.5879 23.9922 84.1621 24.6191 84.1621 25.6973C84.1621 26.1895 83.9863 26.623 83.6348 26.998C83.2832 27.373 82.791 27.5605 82.1582 27.5605C81.6309 27.5605 81.1621 27.3789 80.752 27.0156C80.3418 26.6406 80.1367 26.1191 80.1367 25.4512ZM88.2754 33.0449V29.3711C87.1973 29.6172 86.3066 29.8867 85.6035 30.1797C84.9004 30.4609 84.3613 30.7715 83.9863 31.1113C83.623 31.4512 83.3711 31.8027 83.2305 32.166C83.0898 32.5176 83.0195 32.9277 83.0195 33.3965C83.0195 33.9824 83.1895 34.4453 83.5293 34.7852C83.8809 35.1133 84.3086 35.2773 84.8125 35.2773C85.9844 35.2773 87.1387 34.5332 88.2754 33.0449ZM101.723 18.0332C101.84 17.9863 101.975 17.9629 102.127 17.9629C102.279 17.9629 102.438 17.9863 102.602 18.0332V21.8828H107.928C107.998 22.0586 108.033 22.2754 108.033 22.5332C108.033 22.7559 107.998 22.9609 107.928 23.1484H102.602V32.5352C102.602 34.3867 103.451 35.3125 105.15 35.3125C105.795 35.3125 106.346 35.1895 106.803 34.9434C107.271 34.6973 107.787 34.3281 108.35 33.8359C108.643 33.8711 108.836 34.0117 108.93 34.2578C108.414 35.1836 107.652 35.957 106.645 36.5781C105.637 37.1992 104.529 37.5098 103.322 37.5098C100.486 37.5098 99.0684 35.793 99.0684 32.3594V23.1484H96.9062C96.8594 22.9375 96.8359 22.8027 96.8359 22.7441C96.8359 22.7324 96.8594 22.5977 96.9062 22.3398C97.4688 22.0586 97.8965 21.8301 98.1895 21.6543C98.4941 21.4668 98.875 21.2031 99.332 20.8633C99.8008 20.5234 100.223 20.125 100.598 19.668C100.984 19.1992 101.359 18.6543 101.723 18.0332ZM110.828 22.5332C113.102 22.2988 115.082 21.8184 116.77 21.0918C117.062 21.209 117.268 21.3613 117.385 21.5488C117.385 27.6309 117.432 31.9785 117.525 34.5918C117.537 34.8965 117.625 35.1602 117.789 35.3828C117.965 35.5938 118.211 35.7578 118.527 35.875C118.844 35.9922 119.107 36.0801 119.318 36.1387C119.529 36.1855 119.805 36.2324 120.145 36.2793C120.215 36.4199 120.25 36.5664 120.25 36.7188C120.25 36.8711 120.215 37 120.145 37.1055C118.598 37.0352 117.098 37 115.645 37C114.215 37 112.727 37.0352 111.18 37.1055C111.133 36.918 111.109 36.7891 111.109 36.7188C111.109 36.6602 111.133 36.5137 111.18 36.2793C111.566 36.2324 111.883 36.1855 112.129 36.1387C112.375 36.0801 112.68 35.9922 113.043 35.875C113.406 35.7578 113.682 35.5938 113.869 35.3828C114.057 35.1602 114.156 34.8965 114.168 34.5918C114.215 33.4316 114.238 32.3008 114.238 31.1992C114.238 30.0977 114.232 28.8848 114.221 27.5605C114.209 26.2363 114.203 25.0762 114.203 24.0801C113.535 23.6699 112.41 23.4297 110.828 23.3594C110.781 23.1719 110.758 23.0254 110.758 22.9199C110.758 22.8496 110.781 22.7207 110.828 22.5332ZM112.797 17.3125L117.051 12.0215C117.531 11.4707 118.07 11.1953 118.668 11.1953C119.113 11.1953 119.477 11.3359 119.758 11.6172C120.039 11.8867 120.18 12.25 120.18 12.707C120.18 13.1875 119.963 13.6152 119.529 13.9902C119.365 14.1426 118.949 14.4297 118.281 14.8516L113.307 17.9629L112.797 17.3125ZM129.479 37.5098C128.904 37.5098 128.383 37.4629 127.914 37.3691C127.457 37.2754 127.1 37.1758 126.842 37.0703C126.596 36.9648 126.262 36.8066 125.84 36.5957C125.383 36.5957 124.709 36.7656 123.818 37.1055C123.666 37.0117 123.561 36.9062 123.502 36.7891C123.561 36.6016 123.631 35.9629 123.713 34.873C123.807 33.7832 123.854 32.8105 123.854 31.9551C124.006 31.8848 124.281 31.8496 124.68 31.8496C124.891 32.5293 125.107 33.1094 125.33 33.5898C125.564 34.0703 125.857 34.5391 126.209 34.9961C126.572 35.4414 127.006 35.7812 127.51 36.0156C128.025 36.2383 128.611 36.3496 129.268 36.3496C130.287 36.3496 131.084 36.0859 131.658 35.5586C132.244 35.0312 132.537 34.4336 132.537 33.7656C132.537 33.2617 132.455 32.834 132.291 32.4824C132.127 32.1309 131.758 31.7617 131.184 31.375C130.621 30.9766 129.812 30.584 128.758 30.1973C128.102 29.9629 127.545 29.7461 127.088 29.5469C126.631 29.3477 126.156 29.1016 125.664 28.8086C125.184 28.5156 124.797 28.2168 124.504 27.9121C124.211 27.5957 123.971 27.2207 123.783 26.7871C123.596 26.3535 123.502 25.8789 123.502 25.3633C123.502 24.9883 123.543 24.6191 123.625 24.2559C123.719 23.8809 123.889 23.4941 124.135 23.0957C124.393 22.6973 124.709 22.3516 125.084 22.0586C125.471 21.7539 125.98 21.5078 126.613 21.3203C127.258 21.1211 127.984 21.0215 128.793 21.0215C129.121 21.0215 129.408 21.0391 129.654 21.0742C129.912 21.1094 130.217 21.1738 130.568 21.2676C130.932 21.3496 131.131 21.3965 131.166 21.4082C131.424 21.3496 131.688 21.2734 131.957 21.1797C132.238 21.0859 132.396 21.0332 132.432 21.0215H132.889C133.17 22.709 133.533 24.1445 133.979 25.3281C133.838 25.4805 133.609 25.5566 133.293 25.5566C132.32 24.3848 131.488 23.5293 130.797 22.9902C130.117 22.4395 129.344 22.1641 128.477 22.1641C127.797 22.1641 127.199 22.3164 126.684 22.6211C126.168 22.9258 125.91 23.3887 125.91 24.0098C125.91 24.7949 126.221 25.4102 126.842 25.8555C127.475 26.3008 128.641 26.8691 130.34 27.5605C131.125 27.877 131.74 28.1406 132.186 28.3516C132.643 28.5625 133.1 28.8145 133.557 29.1074C134.014 29.4004 134.348 29.7051 134.559 30.0215C134.781 30.3262 134.963 30.6953 135.104 31.1289C135.244 31.5625 135.314 32.0664 135.314 32.6406C135.314 33.8828 134.74 35.0078 133.592 36.0156C132.455 37.0117 131.084 37.5098 129.479 37.5098ZM143.453 18.0332C143.57 17.9863 143.705 17.9629 143.857 17.9629C144.01 17.9629 144.168 17.9863 144.332 18.0332V21.8828H149.658C149.729 22.0586 149.764 22.2754 149.764 22.5332C149.764 22.7559 149.729 22.9609 149.658 23.1484H144.332V32.5352C144.332 34.3867 145.182 35.3125 146.881 35.3125C147.525 35.3125 148.076 35.1895 148.533 34.9434C149.002 34.6973 149.518 34.3281 150.08 33.8359C150.373 33.8711 150.566 34.0117 150.66 34.2578C150.145 35.1836 149.383 35.957 148.375 36.5781C147.367 37.1992 146.26 37.5098 145.053 37.5098C142.217 37.5098 140.799 35.793 140.799 32.3594V23.1484H138.637C138.59 22.9375 138.566 22.8027 138.566 22.7441C138.566 22.7324 138.59 22.5977 138.637 22.3398C139.199 22.0586 139.627 21.8301 139.92 21.6543C140.225 21.4668 140.605 21.2031 141.062 20.8633C141.531 20.5234 141.953 20.125 142.328 19.668C142.715 19.1992 143.09 18.6543 143.453 18.0332ZM152.559 22.5332C154.832 22.2988 156.812 21.8184 158.5 21.0918C158.793 21.209 158.998 21.3613 159.115 21.5488C159.115 27.6309 159.162 31.9785 159.256 34.5918C159.268 34.8965 159.355 35.1602 159.52 35.3828C159.695 35.5938 159.941 35.7578 160.258 35.875C160.574 35.9922 160.838 36.0801 161.049 36.1387C161.26 36.1855 161.535 36.2324 161.875 36.2793C161.945 36.4199 161.98 36.5664 161.98 36.7188C161.98 36.8711 161.945 37 161.875 37.1055C160.328 37.0352 158.828 37 157.375 37C155.945 37 154.457 37.0352 152.91 37.1055C152.863 36.918 152.84 36.7891 152.84 36.7188C152.84 36.6602 152.863 36.5137 152.91 36.2793C153.297 36.2324 153.613 36.1855 153.859 36.1387C154.105 36.0801 154.41 35.9922 154.773 35.875C155.137 35.7578 155.412 35.5938 155.6 35.3828C155.787 35.1602 155.887 34.8965 155.898 34.5918C155.945 33.4316 155.969 32.0254 155.969 30.373C155.969 29.8223 155.963 28.8848 155.951 27.5605C155.939 26.2363 155.934 25.0762 155.934 24.0801C155.266 23.6699 154.141 23.4297 152.559 23.3594C152.512 23.1719 152.488 23.0254 152.488 22.9199C152.488 22.8496 152.512 22.7207 152.559 22.5332ZM155.318 15.1855C155.318 14.5879 155.529 14.0781 155.951 13.6562C156.385 13.2344 156.895 13.0234 157.48 13.0234C158.078 13.0234 158.588 13.2344 159.01 13.6562C159.432 14.0781 159.643 14.5879 159.643 15.1855C159.643 15.7715 159.432 16.2812 159.01 16.7148C158.588 17.1367 158.078 17.3477 157.48 17.3477C156.895 17.3477 156.385 17.1367 155.951 16.7148C155.529 16.2812 155.318 15.7715 155.318 15.1855ZM178.592 32.4297C178.873 32.4883 179.102 32.6172 179.277 32.8164C178.691 34.3867 177.783 35.5645 176.553 36.3496C175.322 37.123 173.986 37.5098 172.545 37.5098C171.83 37.5098 171.133 37.416 170.453 37.2285C169.773 37.0527 169.111 36.7598 168.467 36.3496C167.834 35.9395 167.277 35.4355 166.797 34.8379C166.328 34.2285 165.947 33.4727 165.654 32.5703C165.373 31.6562 165.232 30.6484 165.232 29.5469C165.232 27.0039 166.012 24.9473 167.57 23.377C169.129 21.8066 171.074 21.0215 173.406 21.0215C175.047 21.0215 176.383 21.3789 177.414 22.0938C178.457 22.7969 178.979 23.6992 178.979 24.8008C178.979 25.4219 178.773 25.9375 178.363 26.3477C177.953 26.7578 177.449 26.9629 176.852 26.9629C176.219 26.9629 175.709 26.7812 175.322 26.418C174.936 26.043 174.742 25.6094 174.742 25.1172C174.742 24.2266 175.193 23.6641 176.096 23.4297C176.014 23.1602 175.75 22.8848 175.305 22.6035C174.859 22.3105 174.227 22.1641 173.406 22.1641C172.984 22.1641 172.586 22.2168 172.211 22.3223C171.836 22.416 171.432 22.6211 170.998 22.9375C170.576 23.2539 170.213 23.6699 169.908 24.1855C169.615 24.7012 169.369 25.4219 169.17 26.3477C168.971 27.2617 168.871 28.3281 168.871 29.5469C168.871 30.3672 168.953 31.1113 169.117 31.7793C169.293 32.4473 169.562 33.0508 169.926 33.5898C170.289 34.1289 170.787 34.5508 171.42 34.8555C172.053 35.1602 172.797 35.3125 173.652 35.3125C174.191 35.3125 174.701 35.2422 175.182 35.1016C175.662 34.9492 176.049 34.791 176.342 34.627C176.646 34.4629 176.969 34.2168 177.309 33.8887C177.66 33.5488 177.895 33.3086 178.012 33.168C178.129 33.0156 178.322 32.7695 178.592 32.4297ZM183.355 25.4512C183.355 24.1621 183.941 23.1016 185.113 22.2695C186.297 21.4375 187.691 21.0215 189.297 21.0215C191.266 21.0215 192.648 21.4141 193.445 22.1992C194.254 22.9844 194.658 24.3086 194.658 26.1719V33.4668C194.658 34.123 194.898 34.4512 195.379 34.4512C195.766 34.4512 196.258 33.9824 196.855 33.0449C197.277 33.0801 197.564 33.2676 197.717 33.6074C197.635 33.7246 197.494 33.9355 197.295 34.2402C197.096 34.5449 196.949 34.7617 196.855 34.8906C196.762 35.0195 196.615 35.2188 196.416 35.4883C196.217 35.7461 196.053 35.9395 195.924 36.0684C195.807 36.1973 195.643 36.3496 195.432 36.5254C195.232 36.7012 195.045 36.8359 194.869 36.9297C194.705 37.0117 194.512 37.082 194.289 37.1406C194.066 37.2109 193.844 37.2461 193.621 37.2461C193.035 37.2461 192.549 37.0352 192.162 36.6133C191.787 36.1914 191.564 35.541 191.494 34.6621C191.482 34.6738 191.301 34.8438 190.949 35.1719C190.598 35.5 190.352 35.7227 190.211 35.8398C190.082 35.9453 189.83 36.1387 189.455 36.4199C189.092 36.6895 188.781 36.8828 188.523 37C188.266 37.1172 187.943 37.2285 187.557 37.334C187.17 37.4512 186.789 37.5098 186.414 37.5098C185.816 37.5098 185.283 37.4277 184.814 37.2637C184.357 37.0996 184 36.9004 183.742 36.666C183.484 36.4316 183.273 36.1621 183.109 35.8574C182.945 35.541 182.834 35.2539 182.775 34.9961C182.729 34.7383 182.705 34.4805 182.705 34.2227C182.705 33.4375 182.834 32.7754 183.092 32.2363C183.361 31.6973 183.854 31.1934 184.568 30.7246C185.295 30.2559 186.186 29.8398 187.24 29.4766C188.295 29.1133 189.713 28.7031 191.494 28.2461V25.8027C191.494 24.6191 191.23 23.7344 190.703 23.1484C190.188 22.5625 189.49 22.2695 188.611 22.2695C187.826 22.2695 187.164 22.4277 186.625 22.7441C186.098 23.0488 185.775 23.4062 185.658 23.8164C186.807 23.9922 187.381 24.6191 187.381 25.6973C187.381 26.1895 187.205 26.623 186.854 26.998C186.502 27.373 186.01 27.5605 185.377 27.5605C184.85 27.5605 184.381 27.3789 183.971 27.0156C183.561 26.6406 183.355 26.1191 183.355 25.4512ZM191.494 33.0449V29.3711C190.416 29.6172 189.525 29.8867 188.822 30.1797C188.119 30.4609 187.58 30.7715 187.205 31.1113C186.842 31.4512 186.59 31.8027 186.449 32.166C186.309 32.5176 186.238 32.9277 186.238 33.3965C186.238 33.9824 186.408 34.4453 186.748 34.7852C187.1 35.1133 187.527 35.2773 188.031 35.2773C189.203 35.2773 190.357 34.5332 191.494 33.0449ZM206.752 37.5098C206.178 37.5098 205.656 37.4629 205.188 37.3691C204.73 37.2754 204.373 37.1758 204.115 37.0703C203.869 36.9648 203.535 36.8066 203.113 36.5957C202.656 36.5957 201.982 36.7656 201.092 37.1055C200.939 37.0117 200.834 36.9062 200.775 36.7891C200.834 36.6016 200.904 35.9629 200.986 34.873C201.08 33.7832 201.127 32.8105 201.127 31.9551C201.279 31.8848 201.555 31.8496 201.953 31.8496C202.164 32.5293 202.381 33.1094 202.604 33.5898C202.838 34.0703 203.131 34.5391 203.482 34.9961C203.846 35.4414 204.279 35.7812 204.783 36.0156C205.299 36.2383 205.885 36.3496 206.541 36.3496C207.561 36.3496 208.357 36.0859 208.932 35.5586C209.518 35.0312 209.811 34.4336 209.811 33.7656C209.811 33.2617 209.729 32.834 209.564 32.4824C209.4 32.1309 209.031 31.7617 208.457 31.375C207.895 30.9766 207.086 30.584 206.031 30.1973C205.375 29.9629 204.818 29.7461 204.361 29.5469C203.904 29.3477 203.43 29.1016 202.938 28.8086C202.457 28.5156 202.07 28.2168 201.777 27.9121C201.484 27.5957 201.244 27.2207 201.057 26.7871C200.869 26.3535 200.775 25.8789 200.775 25.3633C200.775 24.9883 200.816 24.6191 200.898 24.2559C200.992 23.8809 201.162 23.4941 201.408 23.0957C201.666 22.6973 201.982 22.3516 202.357 22.0586C202.744 21.7539 203.254 21.5078 203.887 21.3203C204.531 21.1211 205.258 21.0215 206.066 21.0215C206.395 21.0215 206.682 21.0391 206.928 21.0742C207.186 21.1094 207.49 21.1738 207.842 21.2676C208.205 21.3496 208.404 21.3965 208.439 21.4082C208.697 21.3496 208.961 21.2734 209.23 21.1797C209.512 21.0859 209.67 21.0332 209.705 21.0215H210.162C210.443 22.709 210.807 24.1445 211.252 25.3281C211.111 25.4805 210.883 25.5566 210.566 25.5566C209.594 24.3848 208.762 23.5293 208.07 22.9902C207.391 22.4395 206.617 22.1641 205.75 22.1641C205.07 22.1641 204.473 22.3164 203.957 22.6211C203.441 22.9258 203.184 23.3887 203.184 24.0098C203.184 24.7949 203.494 25.4102 204.115 25.8555C204.748 26.3008 205.914 26.8691 207.613 27.5605C208.398 27.877 209.014 28.1406 209.459 28.3516C209.916 28.5625 210.373 28.8145 210.83 29.1074C211.287 29.4004 211.621 29.7051 211.832 30.0215C212.055 30.3262 212.236 30.6953 212.377 31.1289C212.518 31.5625 212.588 32.0664 212.588 32.6406C212.588 33.8828 212.014 35.0078 210.865 36.0156C209.729 37.0117 208.357 37.5098 206.752 37.5098ZM217.281 23.4648C217.281 23.1602 217.34 22.873 217.457 22.6035C217.574 22.334 217.732 22.0996 217.932 21.9004C218.131 21.7012 218.359 21.5488 218.617 21.4434C218.887 21.3262 219.174 21.2676 219.479 21.2676C219.771 21.2676 220.053 21.3262 220.322 21.4434C220.592 21.5605 220.826 21.7188 221.025 21.918C221.225 22.1172 221.383 22.3516 221.5 22.6211C221.617 22.8906 221.676 23.1719 221.676 23.4648C221.676 23.7578 221.617 24.0391 221.5 24.3086C221.395 24.5664 221.242 24.8008 221.043 25.0117C220.844 25.2109 220.609 25.3691 220.34 25.4863C220.07 25.6035 219.783 25.6621 219.479 25.6621C219.174 25.6621 218.887 25.6035 218.617 25.4863C218.359 25.3691 218.131 25.2109 217.932 25.0117C217.732 24.8125 217.574 24.584 217.457 24.3262C217.34 24.0566 217.281 23.7695 217.281 23.4648ZM219.479 33.1152C219.771 33.1152 220.053 33.1738 220.322 33.291C220.592 33.4082 220.826 33.5664 221.025 33.7656C221.225 33.9648 221.383 34.1992 221.5 34.4688C221.617 34.7383 221.676 35.0195 221.676 35.3125C221.676 35.6055 221.617 35.8867 221.5 36.1562C221.395 36.4141 221.242 36.6484 221.043 36.8594C220.844 37.0586 220.609 37.2168 220.34 37.334C220.07 37.4512 219.783 37.5098 219.479 37.5098C219.174 37.5098 218.887 37.4512 218.617 37.334C218.348 37.2285 218.113 37.0762 217.914 36.877C217.715 36.6777 217.557 36.4434 217.439 36.1738C217.334 35.9043 217.281 35.6172 217.281 35.3125C217.281 35.0078 217.34 34.7207 217.457 34.4512C217.574 34.1816 217.732 33.9473 217.932 33.748C218.131 33.5488 218.359 33.3965 218.617 33.291C218.887 33.1738 219.174 33.1152 219.479 33.1152Z" fill="#BF91F3"/>
</svg>
