<svg width="815" height="48" viewBox="0 0 815 48" fill="none" xmlns="http://www.w3.org/2000/svg">
<path d="M34.6621 10.5801C35.5879 10.5801 36.5078 10.6445 37.4219 10.7734C38.3477 10.8906 39.2324 11.0371 40.0762 11.2129C40.9316 11.377 41.7402 11.541 42.502 11.7051C43.2637 11.8691 43.9492 11.9863 44.5586 12.0566C44.418 12.4785 44.3477 13.2227 44.3477 14.2891C44.3477 16.3633 44.6582 18.1621 45.2793 19.6855C45.209 19.8965 44.9922 20.0254 44.6289 20.0723L43.873 18.4551C43.498 17.6465 43.0469 16.8496 42.5195 16.0645C41.9922 15.2676 41.3594 14.5586 40.6211 13.9375C39.8828 13.3047 39.0215 12.7949 38.0371 12.4082C37.0645 12.0215 35.9395 11.8281 34.6621 11.8281C33.5605 11.8281 32.582 12.0098 31.7266 12.373C30.8711 12.7363 30.1211 13.2285 29.4766 13.8496C28.832 14.459 28.2871 15.1738 27.8418 15.9941C27.3965 16.8027 27.0332 17.6641 26.752 18.5781C26.4824 19.4922 26.2832 20.4297 26.1543 21.3906C26.0371 22.3516 25.9785 23.2832 25.9785 24.1855C25.9785 25.6855 26.1719 27.1211 26.5586 28.4922C26.957 29.8633 27.5723 31.0762 28.4043 32.1309C29.2363 33.1738 30.291 34.0059 31.5684 34.627C32.8574 35.248 34.3926 35.5586 36.1738 35.5586C39.584 35.5586 42.1621 34.4922 43.9082 32.3594C44.0957 32.3594 44.248 32.4121 44.3652 32.5176C44.4941 32.623 44.5586 32.752 44.5586 32.9043C43.9961 33.7363 43.3105 34.457 42.502 35.0664C41.7051 35.6758 40.8555 36.1797 39.9531 36.5781C39.0508 36.9648 38.1367 37.252 37.2109 37.4395C36.2969 37.627 35.4473 37.7207 34.6621 37.7207C33.8066 37.7207 32.8809 37.627 31.8848 37.4395C30.9004 37.2637 29.9102 36.9648 28.9141 36.543C27.9297 36.1211 26.9805 35.5703 26.0664 34.8906C25.1641 34.1992 24.3613 33.3555 23.6582 32.3594C22.9551 31.3516 22.3926 30.1738 21.9707 28.8262C21.5488 27.4785 21.3379 25.9316 21.3379 24.1855C21.3379 22.4277 21.5488 20.875 21.9707 19.5273C22.3926 18.168 22.9551 16.9844 23.6582 15.9766C24.373 14.9688 25.1875 14.125 26.1016 13.4453C27.0273 12.7539 27.9824 12.1973 28.9668 11.7754C29.9512 11.3418 30.9355 11.0371 31.9199 10.8613C32.9043 10.6738 33.8184 10.5801 34.6621 10.5801ZM56.002 21.0215C57.1621 21.0215 58.2051 21.2266 59.1309 21.6367C60.0684 22.0469 60.8652 22.6152 61.5215 23.3418C62.1777 24.0684 62.6816 24.9414 63.0332 25.9609C63.3848 26.9688 63.5605 28.0703 63.5605 29.2656C63.5605 31.7031 62.875 33.6836 61.5039 35.207C60.1445 36.7422 58.3105 37.5098 56.002 37.5098C54.8535 37.5098 53.8105 37.3105 52.873 36.9121C51.9473 36.502 51.1562 35.9336 50.5 35.207C49.8438 34.4688 49.334 33.5957 48.9707 32.5879C48.6191 31.5801 48.4434 30.4727 48.4434 29.2656C48.4434 28.0703 48.6191 26.9688 48.9707 25.9609C49.3223 24.9414 49.8203 24.0684 50.4648 23.3418C51.1211 22.6152 51.918 22.0469 52.8555 21.6367C53.793 21.2266 54.8418 21.0215 56.002 21.0215ZM56.002 22.1641C54.8066 22.1641 53.8516 22.7441 53.1367 23.9043C52.4336 25.0645 52.082 26.8516 52.082 29.2656C52.082 31.6797 52.4336 33.4668 53.1367 34.627C53.8516 35.7754 54.8066 36.3496 56.002 36.3496C57.1973 36.3496 58.1465 35.7695 58.8496 34.6094C59.5645 33.4492 59.9219 31.668 59.9219 29.2656C59.9219 28.0586 59.8281 27.0098 59.6406 26.1191C59.4531 25.2285 59.1895 24.4902 58.8496 23.9043C58.5098 23.3184 58.0996 22.8848 57.6191 22.6035C57.1387 22.3105 56.5996 22.1641 56.002 22.1641ZM76.375 36.2793C76.4453 36.4199 76.4805 36.5664 76.4805 36.7188C76.4805 36.8359 76.4453 36.9648 76.375 37.1055C74.8281 37.0352 73.3281 37 71.875 37C70.4453 37 68.957 37.0352 67.4102 37.1055C67.3633 36.918 67.3398 36.7891 67.3398 36.7188C67.3398 36.6602 67.3633 36.5137 67.4102 36.2793C67.7969 36.2324 68.1133 36.1855 68.3594 36.1387C68.6055 36.0801 68.9102 35.9922 69.2734 35.875C69.6367 35.7578 69.9121 35.5938 70.0996 35.3828C70.2871 35.1602 70.3867 34.8965 70.3984 34.5918C70.4453 33.4316 70.4688 32.0254 70.4688 30.373C70.4688 29.8223 70.4629 28.8848 70.4512 27.5605C70.4395 26.2363 70.4336 25.0762 70.4336 24.0801C69.7656 23.6699 68.6406 23.4297 67.0586 23.3594C67.0117 23.1719 66.9883 23.0254 66.9883 22.9199C66.9883 22.8496 67.0117 22.7207 67.0586 22.5332C69.332 22.2988 71.3125 21.8184 73 21.0918C73.293 21.209 73.498 21.3613 73.6152 21.5488V24.3262C74.752 23.3301 75.8418 22.5332 76.8848 21.9355C77.9277 21.3262 78.9824 21.0215 80.0488 21.0215C81.3848 21.0215 82.3281 21.3965 82.8789 22.1465C83.4414 22.8965 83.7344 24.0684 83.7578 25.6621L83.9336 34.5918C83.9453 34.8965 84.0332 35.1602 84.1973 35.3828C84.373 35.5938 84.6191 35.7578 84.9355 35.875C85.2637 35.9922 85.5332 36.0801 85.7441 36.1387C85.9551 36.1855 86.2305 36.2324 86.5703 36.2793C86.6172 36.5137 86.6406 36.6719 86.6406 36.7539C86.6406 36.8477 86.6172 36.9648 86.5703 37.1055C85.0586 37.0352 83.6641 37 82.3867 37C81.1445 37 79.7676 37.0352 78.2559 37.1055C78.209 36.918 78.1855 36.7773 78.1855 36.6836C78.1855 36.6016 78.209 36.4668 78.2559 36.2793C78.5605 36.2324 78.8125 36.1855 79.0117 36.1387C79.2227 36.0801 79.457 35.9922 79.7148 35.875C79.9844 35.7578 80.1836 35.5938 80.3125 35.3828C80.4531 35.1602 80.5234 34.8965 80.5234 34.5918L80.5586 26.2422C80.5586 24.1211 79.9199 23.0605 78.6426 23.0605C77.4473 23.0605 75.7715 23.8574 73.6152 25.4512C73.6152 28.8613 73.6621 31.9082 73.7559 34.5918C73.7676 34.8965 73.8555 35.1602 74.0195 35.3828C74.1953 35.5938 74.4414 35.7578 74.7578 35.875C75.0742 35.9922 75.3379 36.0801 75.5488 36.1387C75.7598 36.1855 76.0352 36.2324 76.375 36.2793ZM102.672 27.6836H93.0918C93.0449 28.3867 93.0215 29.0078 93.0215 29.5469C93.0566 31.293 93.5664 32.6934 94.5508 33.748C95.5352 34.791 96.8535 35.3125 98.5059 35.3125C98.9512 35.3125 99.3672 35.2656 99.7539 35.1719C100.141 35.0664 100.457 34.9492 100.703 34.8203C100.961 34.6914 101.225 34.5039 101.494 34.2578C101.764 34.0117 101.957 33.8184 102.074 33.6777C102.203 33.5254 102.373 33.3027 102.584 33.0098C102.795 32.7051 102.936 32.5117 103.006 32.4297C103.287 32.4883 103.516 32.6172 103.691 32.8164C103.105 34.3867 102.197 35.5645 100.967 36.3496C99.7363 37.123 98.4004 37.5098 96.959 37.5098C96.2441 37.5098 95.5469 37.416 94.8672 37.2285C94.1992 37.0527 93.5488 36.7598 92.916 36.3496C92.2832 35.9395 91.7324 35.4355 91.2637 34.8379C90.7949 34.2285 90.4199 33.4727 90.1387 32.5703C89.8574 31.6562 89.7168 30.6484 89.7168 29.5469C89.7168 27.0742 90.4727 25.0352 91.9844 23.4297C93.4961 21.8242 95.3535 21.0215 97.5566 21.0215C98.5293 21.0215 99.373 21.1621 100.088 21.4434C100.814 21.7129 101.377 22.082 101.775 22.5508C102.186 23.0195 102.484 23.5352 102.672 24.0977C102.871 24.6484 102.971 25.2402 102.971 25.873C102.971 26.459 102.871 27.0625 102.672 27.6836ZM97.1348 22.1641C96.3262 22.1641 95.5586 22.5215 94.832 23.2363C94.1172 23.9512 93.6016 25.0352 93.2852 26.4883H99.6133C99.7305 26.043 99.7891 25.6562 99.7891 25.3281C99.7891 24.4141 99.5781 23.6582 99.1562 23.0605C98.7344 22.4629 98.0605 22.1641 97.1348 22.1641ZM120.654 32.4297C120.936 32.4883 121.164 32.6172 121.34 32.8164C120.754 34.3867 119.846 35.5645 118.615 36.3496C117.385 37.123 116.049 37.5098 114.607 37.5098C113.893 37.5098 113.195 37.416 112.516 37.2285C111.836 37.0527 111.174 36.7598 110.529 36.3496C109.896 35.9395 109.34 35.4355 108.859 34.8379C108.391 34.2285 108.01 33.4727 107.717 32.5703C107.436 31.6562 107.295 30.6484 107.295 29.5469C107.295 27.0039 108.074 24.9473 109.633 23.377C111.191 21.8066 113.137 21.0215 115.469 21.0215C117.109 21.0215 118.445 21.3789 119.477 22.0938C120.52 22.7969 121.041 23.6992 121.041 24.8008C121.041 25.4219 120.836 25.9375 120.426 26.3477C120.016 26.7578 119.512 26.9629 118.914 26.9629C118.281 26.9629 117.771 26.7812 117.385 26.418C116.998 26.043 116.805 25.6094 116.805 25.1172C116.805 24.2266 117.256 23.6641 118.158 23.4297C118.076 23.1602 117.812 22.8848 117.367 22.6035C116.922 22.3105 116.289 22.1641 115.469 22.1641C115.047 22.1641 114.648 22.2168 114.273 22.3223C113.898 22.416 113.494 22.6211 113.061 22.9375C112.639 23.2539 112.275 23.6699 111.971 24.1855C111.678 24.7012 111.432 25.4219 111.232 26.3477C111.033 27.2617 110.934 28.3281 110.934 29.5469C110.934 30.3672 111.016 31.1113 111.18 31.7793C111.355 32.4473 111.625 33.0508 111.988 33.5898C112.352 34.1289 112.85 34.5508 113.482 34.8555C114.115 35.1602 114.859 35.3125 115.715 35.3125C116.254 35.3125 116.764 35.2422 117.244 35.1016C117.725 34.9492 118.111 34.791 118.404 34.627C118.709 34.4629 119.031 34.2168 119.371 33.8887C119.723 33.5488 119.957 33.3086 120.074 33.168C120.191 33.0156 120.385 32.7695 120.654 32.4297ZM128.758 18.0332C128.875 17.9863 129.01 17.9629 129.162 17.9629C129.314 17.9629 129.473 17.9863 129.637 18.0332V21.8828H134.963C135.033 22.0586 135.068 22.2754 135.068 22.5332C135.068 22.7559 135.033 22.9609 134.963 23.1484H129.637V32.5352C129.637 34.3867 130.486 35.3125 132.186 35.3125C132.83 35.3125 133.381 35.1895 133.838 34.9434C134.307 34.6973 134.822 34.3281 135.385 33.8359C135.678 33.8711 135.871 34.0117 135.965 34.2578C135.449 35.1836 134.688 35.957 133.68 36.5781C132.672 37.1992 131.564 37.5098 130.357 37.5098C127.521 37.5098 126.104 35.793 126.104 32.3594V23.1484H123.941C123.895 22.9375 123.871 22.8027 123.871 22.7441C123.871 22.7324 123.895 22.5977 123.941 22.3398C124.504 22.0586 124.932 21.8301 125.225 21.6543C125.529 21.4668 125.91 21.2031 126.367 20.8633C126.836 20.5234 127.258 20.125 127.633 19.668C128.02 19.1992 128.395 18.6543 128.758 18.0332ZM151.645 27.6836H142.064C142.018 28.3867 141.994 29.0078 141.994 29.5469C142.029 31.293 142.539 32.6934 143.523 33.748C144.508 34.791 145.826 35.3125 147.479 35.3125C147.924 35.3125 148.34 35.2656 148.727 35.1719C149.113 35.0664 149.43 34.9492 149.676 34.8203C149.934 34.6914 150.197 34.5039 150.467 34.2578C150.736 34.0117 150.93 33.8184 151.047 33.6777C151.176 33.5254 151.346 33.3027 151.557 33.0098C151.768 32.7051 151.908 32.5117 151.979 32.4297C152.26 32.4883 152.488 32.6172 152.664 32.8164C152.078 34.3867 151.17 35.5645 149.939 36.3496C148.709 37.123 147.373 37.5098 145.932 37.5098C145.217 37.5098 144.52 37.416 143.84 37.2285C143.172 37.0527 142.521 36.7598 141.889 36.3496C141.256 35.9395 140.705 35.4355 140.236 34.8379C139.768 34.2285 139.393 33.4727 139.111 32.5703C138.83 31.6562 138.689 30.6484 138.689 29.5469C138.689 27.0742 139.445 25.0352 140.957 23.4297C142.469 21.8242 144.326 21.0215 146.529 21.0215C147.502 21.0215 148.346 21.1621 149.061 21.4434C149.787 21.7129 150.35 22.082 150.748 22.5508C151.158 23.0195 151.457 23.5352 151.645 24.0977C151.844 24.6484 151.943 25.2402 151.943 25.873C151.943 26.459 151.844 27.0625 151.645 27.6836ZM146.107 22.1641C145.299 22.1641 144.531 22.5215 143.805 23.2363C143.09 23.9512 142.574 25.0352 142.258 26.4883H148.586C148.703 26.043 148.762 25.6562 148.762 25.3281C148.762 24.4141 148.551 23.6582 148.129 23.0605C147.707 22.4629 147.033 22.1641 146.107 22.1641ZM156.988 29.7578V27.5605H167.676V29.7578H156.988ZM178.697 37.5098C178.123 37.5098 177.602 37.4629 177.133 37.3691C176.676 37.2754 176.318 37.1758 176.061 37.0703C175.814 36.9648 175.48 36.8066 175.059 36.5957C174.602 36.5957 173.928 36.7656 173.037 37.1055C172.885 37.0117 172.779 36.9062 172.721 36.7891C172.779 36.6016 172.85 35.9629 172.932 34.873C173.025 33.7832 173.072 32.8105 173.072 31.9551C173.225 31.8848 173.5 31.8496 173.898 31.8496C174.109 32.5293 174.326 33.1094 174.549 33.5898C174.783 34.0703 175.076 34.5391 175.428 34.9961C175.791 35.4414 176.225 35.7812 176.729 36.0156C177.244 36.2383 177.83 36.3496 178.486 36.3496C179.506 36.3496 180.303 36.0859 180.877 35.5586C181.463 35.0312 181.756 34.4336 181.756 33.7656C181.756 33.2617 181.674 32.834 181.51 32.4824C181.346 32.1309 180.977 31.7617 180.402 31.375C179.84 30.9766 179.031 30.584 177.977 30.1973C177.32 29.9629 176.764 29.7461 176.307 29.5469C175.85 29.3477 175.375 29.1016 174.883 28.8086C174.402 28.5156 174.016 28.2168 173.723 27.9121C173.43 27.5957 173.189 27.2207 173.002 26.7871C172.814 26.3535 172.721 25.8789 172.721 25.3633C172.721 24.9883 172.762 24.6191 172.844 24.2559C172.938 23.8809 173.107 23.4941 173.354 23.0957C173.611 22.6973 173.928 22.3516 174.303 22.0586C174.689 21.7539 175.199 21.5078 175.832 21.3203C176.477 21.1211 177.203 21.0215 178.012 21.0215C178.34 21.0215 178.627 21.0391 178.873 21.0742C179.131 21.1094 179.436 21.1738 179.787 21.2676C180.15 21.3496 180.35 21.3965 180.385 21.4082C180.643 21.3496 180.906 21.2734 181.176 21.1797C181.457 21.0859 181.615 21.0332 181.65 21.0215H182.107C182.389 22.709 182.752 24.1445 183.197 25.3281C183.057 25.4805 182.828 25.5566 182.512 25.5566C181.539 24.3848 180.707 23.5293 180.016 22.9902C179.336 22.4395 178.562 22.1641 177.695 22.1641C177.016 22.1641 176.418 22.3164 175.902 22.6211C175.387 22.9258 175.129 23.3887 175.129 24.0098C175.129 24.7949 175.439 25.4102 176.061 25.8555C176.693 26.3008 177.859 26.8691 179.559 27.5605C180.344 27.877 180.959 28.1406 181.404 28.3516C181.861 28.5625 182.318 28.8145 182.775 29.1074C183.232 29.4004 183.566 29.7051 183.777 30.0215C184 30.3262 184.182 30.6953 184.322 31.1289C184.463 31.5625 184.533 32.0664 184.533 32.6406C184.533 33.8828 183.959 35.0078 182.811 36.0156C181.674 37.0117 180.303 37.5098 178.697 37.5098ZM201.461 27.6836H191.881C191.834 28.3867 191.811 29.0078 191.811 29.5469C191.846 31.293 192.355 32.6934 193.34 33.748C194.324 34.791 195.643 35.3125 197.295 35.3125C197.74 35.3125 198.156 35.2656 198.543 35.1719C198.93 35.0664 199.246 34.9492 199.492 34.8203C199.75 34.6914 200.014 34.5039 200.283 34.2578C200.553 34.0117 200.746 33.8184 200.863 33.6777C200.992 33.5254 201.162 33.3027 201.373 33.0098C201.584 32.7051 201.725 32.5117 201.795 32.4297C202.076 32.4883 202.305 32.6172 202.48 32.8164C201.895 34.3867 200.986 35.5645 199.756 36.3496C198.525 37.123 197.189 37.5098 195.748 37.5098C195.033 37.5098 194.336 37.416 193.656 37.2285C192.988 37.0527 192.338 36.7598 191.705 36.3496C191.072 35.9395 190.521 35.4355 190.053 34.8379C189.584 34.2285 189.209 33.4727 188.928 32.5703C188.646 31.6562 188.506 30.6484 188.506 29.5469C188.506 27.0742 189.262 25.0352 190.773 23.4297C192.285 21.8242 194.143 21.0215 196.346 21.0215C197.318 21.0215 198.162 21.1621 198.877 21.4434C199.604 21.7129 200.166 22.082 200.564 22.5508C200.975 23.0195 201.273 23.5352 201.461 24.0977C201.66 24.6484 201.76 25.2402 201.76 25.873C201.76 26.459 201.66 27.0625 201.461 27.6836ZM195.924 22.1641C195.115 22.1641 194.348 22.5215 193.621 23.2363C192.906 23.9512 192.391 25.0352 192.074 26.4883H198.402C198.52 26.043 198.578 25.6562 198.578 25.3281C198.578 24.4141 198.367 23.6582 197.945 23.0605C197.523 22.4629 196.85 22.1641 195.924 22.1641ZM228.795 32.4297C229.076 32.4883 229.305 32.6172 229.48 32.8164C228.895 34.3867 227.986 35.5645 226.756 36.3496C225.525 37.123 224.189 37.5098 222.748 37.5098C222.033 37.5098 221.336 37.416 220.656 37.2285C219.977 37.0527 219.314 36.7598 218.67 36.3496C218.037 35.9395 217.48 35.4355 217 34.8379C216.531 34.2285 216.15 33.4727 215.857 32.5703C215.576 31.6562 215.436 30.6484 215.436 29.5469C215.436 27.0039 216.215 24.9473 217.773 23.377C219.332 21.8066 221.277 21.0215 223.609 21.0215C225.25 21.0215 226.586 21.3789 227.617 22.0938C228.66 22.7969 229.182 23.6992 229.182 24.8008C229.182 25.4219 228.977 25.9375 228.566 26.3477C228.156 26.7578 227.652 26.9629 227.055 26.9629C226.422 26.9629 225.912 26.7812 225.525 26.418C225.139 26.043 224.945 25.6094 224.945 25.1172C224.945 24.2266 225.396 23.6641 226.299 23.4297C226.217 23.1602 225.953 22.8848 225.508 22.6035C225.062 22.3105 224.43 22.1641 223.609 22.1641C223.188 22.1641 222.789 22.2168 222.414 22.3223C222.039 22.416 221.635 22.6211 221.201 22.9375C220.779 23.2539 220.416 23.6699 220.111 24.1855C219.818 24.7012 219.572 25.4219 219.373 26.3477C219.174 27.2617 219.074 28.3281 219.074 29.5469C219.074 30.3672 219.156 31.1113 219.32 31.7793C219.496 32.4473 219.766 33.0508 220.129 33.5898C220.492 34.1289 220.99 34.5508 221.623 34.8555C222.256 35.1602 223 35.3125 223.855 35.3125C224.395 35.3125 224.904 35.2422 225.385 35.1016C225.865 34.9492 226.252 34.791 226.545 34.627C226.85 34.4629 227.172 34.2168 227.512 33.8887C227.863 33.5488 228.098 33.3086 228.215 33.168C228.332 33.0156 228.525 32.7695 228.795 32.4297ZM240.291 21.0215C241.451 21.0215 242.494 21.2266 243.42 21.6367C244.357 22.0469 245.154 22.6152 245.811 23.3418C246.467 24.0684 246.971 24.9414 247.322 25.9609C247.674 26.9688 247.85 28.0703 247.85 29.2656C247.85 31.7031 247.164 33.6836 245.793 35.207C244.434 36.7422 242.6 37.5098 240.291 37.5098C239.143 37.5098 238.1 37.3105 237.162 36.9121C236.236 36.502 235.445 35.9336 234.789 35.207C234.133 34.4688 233.623 33.5957 233.26 32.5879C232.908 31.5801 232.732 30.4727 232.732 29.2656C232.732 28.0703 232.908 26.9688 233.26 25.9609C233.611 24.9414 234.109 24.0684 234.754 23.3418C235.41 22.6152 236.207 22.0469 237.145 21.6367C238.082 21.2266 239.131 21.0215 240.291 21.0215ZM240.291 22.1641C239.096 22.1641 238.141 22.7441 237.426 23.9043C236.723 25.0645 236.371 26.8516 236.371 29.2656C236.371 31.6797 236.723 33.4668 237.426 34.627C238.141 35.7754 239.096 36.3496 240.291 36.3496C241.486 36.3496 242.436 35.7695 243.139 34.6094C243.854 33.4492 244.211 31.668 244.211 29.2656C244.211 28.0586 244.117 27.0098 243.93 26.1191C243.742 25.2285 243.479 24.4902 243.139 23.9043C242.799 23.3184 242.389 22.8848 241.908 22.6035C241.428 22.3105 240.889 22.1641 240.291 22.1641ZM272.195 36.2793C272.488 36.2324 272.729 36.1855 272.916 36.1387C273.115 36.0801 273.332 35.9922 273.566 35.875C273.801 35.7578 273.977 35.5938 274.094 35.3828C274.211 35.1602 274.27 34.8965 274.27 34.5918L274.305 26.2422C274.305 24.1211 273.672 23.0605 272.406 23.0605C271.773 23.0605 271.088 23.2598 270.35 23.6582C269.611 24.0566 268.727 24.6543 267.695 25.4512V25.6621L267.836 34.5918C267.848 34.8965 267.936 35.1602 268.1 35.3828C268.275 35.5938 268.521 35.7578 268.838 35.875C269.154 35.9922 269.418 36.0801 269.629 36.1387C269.84 36.1855 270.115 36.2324 270.455 36.2793C270.502 36.5137 270.525 36.6719 270.525 36.7539C270.525 36.8477 270.502 36.9648 270.455 37.1055C268.943 37.0352 267.566 37 266.324 37C265.188 37 263.863 37.0352 262.352 37.1055C262.305 36.918 262.281 36.7773 262.281 36.6836C262.281 36.6016 262.305 36.4668 262.352 36.2793C262.645 36.2324 262.891 36.1855 263.09 36.1387C263.289 36.0801 263.506 35.9922 263.74 35.875C263.975 35.7578 264.15 35.5938 264.268 35.3828C264.385 35.1602 264.443 34.8965 264.443 34.5918L264.479 26.2422C264.479 24.1211 263.846 23.0605 262.58 23.0605C261.947 23.0605 261.273 23.2539 260.559 23.6406C259.855 24.0273 258.971 24.6191 257.904 25.416C257.904 28.8496 257.951 31.9082 258.045 34.5918C258.057 34.8965 258.139 35.1602 258.291 35.3828C258.443 35.5938 258.66 35.7578 258.941 35.875C259.234 35.9922 259.486 36.0801 259.697 36.1387C259.908 36.1855 260.172 36.2324 260.488 36.2793C260.559 36.4199 260.594 36.5664 260.594 36.7188C260.594 36.8359 260.559 36.9648 260.488 37.1055C258.941 37.0352 257.5 37 256.164 37C254.734 37 253.246 37.0352 251.699 37.1055C251.652 36.918 251.629 36.7891 251.629 36.7188C251.629 36.6602 251.652 36.5137 251.699 36.2793C252.086 36.2324 252.402 36.1855 252.648 36.1387C252.895 36.0801 253.199 35.9922 253.562 35.875C253.926 35.7578 254.201 35.5938 254.389 35.3828C254.576 35.1602 254.676 34.8965 254.688 34.5918C254.734 33.4316 254.758 32.0254 254.758 30.373C254.758 29.8223 254.752 28.8848 254.74 27.5605C254.729 26.2363 254.723 25.0762 254.723 24.0801C254.055 23.6699 252.93 23.4297 251.348 23.3594C251.301 23.1719 251.277 23.0254 251.277 22.9199C251.277 22.8496 251.301 22.7207 251.348 22.5332C253.621 22.2988 255.602 21.8184 257.289 21.0918C257.582 21.209 257.787 21.3613 257.904 21.5488V24.3262C258.455 23.8223 258.918 23.418 259.293 23.1133C259.668 22.7969 260.125 22.457 260.664 22.0938C261.215 21.7305 261.76 21.4609 262.299 21.2852C262.85 21.1094 263.412 21.0215 263.986 21.0215C265.135 21.0215 265.99 21.2969 266.553 21.8477C267.115 22.3867 267.467 23.2363 267.607 24.3965C268.205 23.8574 268.68 23.4414 269.031 23.1484C269.395 22.8555 269.863 22.5156 270.438 22.1289C271.012 21.7422 271.574 21.4609 272.125 21.2852C272.676 21.1094 273.238 21.0215 273.812 21.0215C275.137 21.0215 276.08 21.3965 276.643 22.1465C277.205 22.8965 277.498 24.0684 277.521 25.6621L277.697 34.5918C277.709 34.8965 277.797 35.1602 277.961 35.3828C278.137 35.5938 278.383 35.7578 278.699 35.875C279.016 35.9922 279.279 36.0801 279.49 36.1387C279.701 36.1855 279.977 36.2324 280.316 36.2793C280.375 36.5723 280.404 36.7305 280.404 36.7539C280.404 36.8125 280.375 36.9297 280.316 37.1055C278.805 37.0352 277.416 37 276.15 37C275.025 37 273.707 37.0352 272.195 37.1055C272.137 36.8711 272.107 36.7305 272.107 36.6836C272.107 36.6484 272.137 36.5137 272.195 36.2793ZM282.637 22.5332C284.91 22.2988 286.891 21.8184 288.578 21.0918C288.871 21.209 289.076 21.3613 289.193 21.5488C289.193 27.6309 289.24 31.9785 289.334 34.5918C289.346 34.8965 289.434 35.1602 289.598 35.3828C289.773 35.5938 290.02 35.7578 290.336 35.875C290.652 35.9922 290.916 36.0801 291.127 36.1387C291.338 36.1855 291.613 36.2324 291.953 36.2793C292.023 36.4199 292.059 36.5664 292.059 36.7188C292.059 36.8711 292.023 37 291.953 37.1055C290.406 37.0352 288.906 37 287.453 37C286.023 37 284.535 37.0352 282.988 37.1055C282.941 36.918 282.918 36.7891 282.918 36.7188C282.918 36.6602 282.941 36.5137 282.988 36.2793C283.375 36.2324 283.691 36.1855 283.938 36.1387C284.184 36.0801 284.488 35.9922 284.852 35.875C285.215 35.7578 285.49 35.5938 285.678 35.3828C285.865 35.1602 285.965 34.8965 285.977 34.5918C286.023 33.4316 286.047 32.0254 286.047 30.373C286.047 29.8223 286.041 28.8848 286.029 27.5605C286.018 26.2363 286.012 25.0762 286.012 24.0801C285.344 23.6699 284.219 23.4297 282.637 23.3594C282.59 23.1719 282.566 23.0254 282.566 22.9199C282.566 22.8496 282.59 22.7207 282.637 22.5332ZM285.396 15.1855C285.396 14.5879 285.607 14.0781 286.029 13.6562C286.463 13.2344 286.973 13.0234 287.559 13.0234C288.156 13.0234 288.666 13.2344 289.088 13.6562C289.51 14.0781 289.721 14.5879 289.721 15.1855C289.721 15.7715 289.51 16.2812 289.088 16.7148C288.666 17.1367 288.156 17.3477 287.559 17.3477C286.973 17.3477 286.463 17.1367 286.029 16.7148C285.607 16.2812 285.396 15.7715 285.396 15.1855ZM307.984 26.5234C307.984 28.375 307.387 29.8574 306.191 30.9707C304.996 32.084 303.543 32.6406 301.832 32.6406C301.023 32.6406 300.268 32.582 299.564 32.4648C298.861 32.9102 298.51 33.4609 298.51 34.1172C298.51 34.6445 298.838 35.0312 299.494 35.2773C300.162 35.5117 301.299 35.6289 302.904 35.6289C303.162 35.6289 303.648 35.6172 304.363 35.5938C305.078 35.5703 305.646 35.5586 306.068 35.5586C309.338 35.5586 310.973 36.9004 310.973 39.584C310.973 40.3457 310.744 41.1484 310.287 41.9922C309.842 42.8359 309.227 43.6211 308.441 44.3477C307.668 45.0859 306.689 45.6953 305.506 46.1758C304.334 46.6562 303.098 46.8965 301.797 46.8965C299.746 46.8965 298.193 46.5156 297.139 45.7539C296.084 45.0039 295.557 44.0664 295.557 42.9414C295.557 42.1562 295.844 41.3711 296.418 40.5859C297.004 39.8008 297.871 39.0977 299.02 38.4766C296.758 38.1484 295.627 37.2695 295.627 35.8398C295.627 35.1602 295.879 34.5215 296.383 33.9238C296.898 33.3145 297.596 32.6816 298.475 32.0254C297.279 31.3574 296.453 30.5898 295.996 29.7227C295.539 28.8555 295.311 27.8711 295.311 26.7695C295.311 26.0898 295.469 25.4102 295.785 24.7305C296.113 24.0391 296.553 23.4238 297.104 22.8848C297.654 22.334 298.328 21.8887 299.125 21.5488C299.934 21.1973 300.783 21.0215 301.674 21.0215C302.494 21.0215 303.168 21.0859 303.695 21.2148C304.223 21.332 304.879 21.543 305.664 21.8477C306.449 22.1523 307.188 22.4043 307.879 22.6035C307.938 22.1465 308.119 21.7598 308.424 21.4434C308.729 21.1152 309.121 20.9512 309.602 20.9512C310.035 20.9512 310.422 21.1328 310.762 21.4961C311.113 21.8594 311.289 22.2754 311.289 22.7441C311.289 23.2246 311.137 23.6406 310.832 23.9922C310.539 24.332 310.164 24.502 309.707 24.502C309.438 24.502 309.168 24.4551 308.898 24.3613C308.629 24.2676 308.406 24.1738 308.23 24.0801C308.066 23.9746 307.82 23.8105 307.492 23.5879C307.164 23.3535 306.906 23.1777 306.719 23.0605L306.648 23.1484C307.082 23.5352 307.41 24.0332 307.633 24.6426C307.867 25.2402 307.984 25.8672 307.984 26.5234ZM298.809 41.6758C298.809 42.1445 298.879 42.5898 299.02 43.0117C299.16 43.4336 299.383 43.832 299.688 44.207C299.992 44.582 300.42 44.875 300.971 45.0859C301.533 45.3086 302.189 45.4199 302.939 45.4199C303.9 45.4199 304.75 45.2676 305.488 44.9629C306.238 44.6699 306.807 44.3008 307.193 43.8555C307.58 43.4102 307.867 42.9766 308.055 42.5547C308.242 42.1445 308.336 41.7695 308.336 41.4297C308.336 40.9609 308.295 40.5625 308.213 40.2344C308.131 39.918 307.973 39.6074 307.738 39.3027C307.516 39.0098 307.164 38.7871 306.684 38.6348C306.203 38.4824 305.594 38.4062 304.855 38.4062C304.457 38.4062 303.713 38.4297 302.623 38.4766C301.533 38.5234 300.836 38.5469 300.531 38.5469C299.992 38.9219 299.57 39.3848 299.266 39.9355C298.961 40.4863 298.809 41.0664 298.809 41.6758ZM298.879 26.8047C298.879 29.9336 299.811 31.498 301.674 31.498C302.564 31.498 303.244 31.1113 303.713 30.3379C304.182 29.5645 304.416 28.2812 304.416 26.4883C304.416 25.668 304.322 24.959 304.135 24.3613C303.947 23.752 303.701 23.3008 303.396 23.0078C303.104 22.7031 302.805 22.4863 302.5 22.3574C302.207 22.2285 301.908 22.1641 301.604 22.1641C300.818 22.1641 300.168 22.5332 299.652 23.2715C299.137 24.0098 298.879 25.1875 298.879 26.8047ZM321.396 21.0215C322.557 21.0215 323.6 21.2266 324.525 21.6367C325.463 22.0469 326.26 22.6152 326.916 23.3418C327.572 24.0684 328.076 24.9414 328.428 25.9609C328.779 26.9688 328.955 28.0703 328.955 29.2656C328.955 31.7031 328.27 33.6836 326.898 35.207C325.539 36.7422 323.705 37.5098 321.396 37.5098C320.248 37.5098 319.205 37.3105 318.268 36.9121C317.342 36.502 316.551 35.9336 315.895 35.207C315.238 34.4688 314.729 33.5957 314.365 32.5879C314.014 31.5801 313.838 30.4727 313.838 29.2656C313.838 28.0703 314.014 26.9688 314.365 25.9609C314.717 24.9414 315.215 24.0684 315.859 23.3418C316.516 22.6152 317.312 22.0469 318.25 21.6367C319.188 21.2266 320.236 21.0215 321.396 21.0215ZM321.396 22.1641C320.201 22.1641 319.246 22.7441 318.531 23.9043C317.828 25.0645 317.477 26.8516 317.477 29.2656C317.477 31.6797 317.828 33.4668 318.531 34.627C319.246 35.7754 320.201 36.3496 321.396 36.3496C322.592 36.3496 323.541 35.7695 324.244 34.6094C324.959 33.4492 325.316 31.668 325.316 29.2656C325.316 28.0586 325.223 27.0098 325.035 26.1191C324.848 25.2285 324.584 24.4902 324.244 23.9043C323.904 23.3184 323.494 22.8848 323.014 22.6035C322.533 22.3105 321.994 22.1641 321.396 22.1641ZM334 23.4648C334 23.1602 334.059 22.873 334.176 22.6035C334.293 22.334 334.451 22.0996 334.65 21.9004C334.85 21.7012 335.078 21.5488 335.336 21.4434C335.605 21.3262 335.893 21.2676 336.197 21.2676C336.49 21.2676 336.771 21.3262 337.041 21.4434C337.311 21.5605 337.545 21.7188 337.744 21.918C337.943 22.1172 338.102 22.3516 338.219 22.6211C338.336 22.8906 338.395 23.1719 338.395 23.4648C338.395 23.7578 338.336 24.0391 338.219 24.3086C338.113 24.5664 337.961 24.8008 337.762 25.0117C337.562 25.2109 337.328 25.3691 337.059 25.4863C336.789 25.6035 336.502 25.6621 336.197 25.6621C335.893 25.6621 335.605 25.6035 335.336 25.4863C335.078 25.3691 334.85 25.2109 334.65 25.0117C334.451 24.8125 334.293 24.584 334.176 24.3262C334.059 24.0566 334 23.7695 334 23.4648ZM336.197 33.1152C336.49 33.1152 336.771 33.1738 337.041 33.291C337.311 33.4082 337.545 33.5664 337.744 33.7656C337.943 33.9648 338.102 34.1992 338.219 34.4688C338.336 34.7383 338.395 35.0195 338.395 35.3125C338.395 35.6055 338.336 35.8867 338.219 36.1562C338.113 36.4141 337.961 36.6484 337.762 36.8594C337.562 37.0586 337.328 37.2168 337.059 37.334C336.789 37.4512 336.502 37.5098 336.197 37.5098C335.893 37.5098 335.605 37.4512 335.336 37.334C335.066 37.2285 334.832 37.0762 334.633 36.877C334.434 36.6777 334.275 36.4434 334.158 36.1738C334.053 35.9043 334 35.6172 334 35.3125C334 35.0078 334.059 34.7207 334.176 34.4512C334.293 34.1816 334.451 33.9473 334.65 33.748C334.85 33.5488 335.078 33.3965 335.336 33.291C335.605 33.1738 335.893 33.1152 336.197 33.1152Z" fill="#BF91F3"/>
</svg>
