<svg width="815" height="48" viewBox="0 0 815 48" fill="none" xmlns="http://www.w3.org/2000/svg">
<path d="M21.7773 11.1602C23.0547 11.207 24.6484 11.2422 26.5586 11.2656C28.4688 11.2891 30.7129 11.3008 33.291 11.3008C35.8691 11.3008 38.1133 11.2891 40.0234 11.2656C41.9453 11.2422 43.5508 11.207 44.8398 11.1602C44.9102 11.6641 44.998 12.1504 45.1035 12.6191C45.209 13.0762 45.3848 13.5859 45.6309 14.1484L46.1582 15.3438L47.4414 17.8398C47.3594 18.0273 47.1543 18.1855 46.8262 18.3145C46.4277 17.5762 45.9414 16.873 45.3672 16.2051C44.793 15.5371 44.0605 14.9336 43.1699 14.3945C42.291 13.8555 41.2129 13.4043 39.9355 13.041C38.6699 12.6777 37.1406 12.4316 35.3477 12.3027C35.2891 13.7676 35.2422 15.4258 35.207 17.2773C35.1836 19.1172 35.1719 21.168 35.1719 23.4297C35.1719 25.7031 35.1836 27.7656 35.207 29.6172C35.2422 31.4688 35.2891 33.127 35.3477 34.5918C35.3594 34.873 35.4707 35.1133 35.6816 35.3125C35.8926 35.5 36.1797 35.6582 36.543 35.7871C36.918 35.916 37.3457 36.0215 37.8262 36.1035C38.3184 36.1738 38.8457 36.2324 39.4082 36.2793C39.4551 36.4785 39.4785 36.6367 39.4785 36.7539C39.4785 36.8594 39.4551 36.9766 39.4082 37.1055C37.4395 37.0352 35.4004 37 33.291 37C31.1934 37 29.1543 37.0352 27.1738 37.1055C27.127 36.9766 27.1035 36.8594 27.1035 36.7539C27.1035 36.6367 27.127 36.4785 27.1738 36.2793L28.0176 36.1914C28.3223 36.1562 28.6621 36.1094 29.0371 36.0508C29.4121 35.9805 29.7578 35.8867 30.0742 35.7695C30.4023 35.6523 30.6777 35.5059 30.9004 35.3301C31.123 35.1543 31.2344 34.9375 31.2344 34.6797V34.5918C31.293 32.4473 31.3398 30.4492 31.375 28.5977C31.4102 26.7461 31.4277 25.0234 31.4277 23.4297C31.4277 21.8477 31.4102 20.1367 31.375 18.2969C31.3398 16.4453 31.293 14.4473 31.2344 12.3027C29.5469 12.3965 28.0762 12.625 26.8223 12.9883C25.5801 13.3398 24.502 13.7852 23.5879 14.3242C22.6738 14.8516 21.9121 15.4609 21.3027 16.1523C20.6934 16.832 20.1895 17.5527 19.791 18.3145C19.4629 18.1855 19.2578 18.0273 19.1758 17.8398L19.9668 16.3457L20.3359 15.5898C20.4883 15.2734 20.6406 14.9512 20.793 14.623C20.9453 14.2949 21.0859 13.9551 21.2148 13.6035C21.3555 13.2402 21.4727 12.8594 21.5664 12.4609C21.6602 12.0508 21.7305 11.6172 21.7773 11.1602ZM62.7344 27.6836H53.1543C53.1074 28.3867 53.084 29.0078 53.084 29.5469C53.1191 31.293 53.6289 32.6934 54.6133 33.748C55.5977 34.791 56.916 35.3125 58.5684 35.3125C59.0137 35.3125 59.4297 35.2656 59.8164 35.1719C60.2031 35.0664 60.5195 34.9492 60.7656 34.8203C61.0234 34.6914 61.2871 34.5039 61.5566 34.2578C61.8262 34.0117 62.0195 33.8184 62.1367 33.6777C62.2656 33.5254 62.4355 33.3027 62.6465 33.0098C62.8574 32.7051 62.998 32.5117 63.0684 32.4297C63.3496 32.4883 63.5781 32.6172 63.7539 32.8164C63.168 34.3867 62.2598 35.5645 61.0293 36.3496C59.7988 37.123 58.4629 37.5098 57.0215 37.5098C56.3066 37.5098 55.6094 37.416 54.9297 37.2285C54.2617 37.0527 53.6113 36.7598 52.9785 36.3496C52.3457 35.9395 51.7949 35.4355 51.3262 34.8379C50.8574 34.2285 50.4824 33.4727 50.2012 32.5703C49.9199 31.6562 49.7793 30.6484 49.7793 29.5469C49.7793 27.0742 50.5352 25.0352 52.0469 23.4297C53.5586 21.8242 55.416 21.0215 57.6191 21.0215C58.5918 21.0215 59.4355 21.1621 60.1504 21.4434C60.877 21.7129 61.4395 22.082 61.8379 22.5508C62.248 23.0195 62.5469 23.5352 62.7344 24.0977C62.9336 24.6484 63.0332 25.2402 63.0332 25.873C63.0332 26.459 62.9336 27.0625 62.7344 27.6836ZM57.1973 22.1641C56.3887 22.1641 55.6211 22.5215 54.8945 23.2363C54.1797 23.9512 53.6641 25.0352 53.3477 26.4883H59.6758C59.793 26.043 59.8516 25.6562 59.8516 25.3281C59.8516 24.4141 59.6406 23.6582 59.2188 23.0605C58.7969 22.4629 58.123 22.1641 57.1973 22.1641ZM80.7168 32.4297C80.998 32.4883 81.2266 32.6172 81.4023 32.8164C80.8164 34.3867 79.9082 35.5645 78.6777 36.3496C77.4473 37.123 76.1113 37.5098 74.6699 37.5098C73.9551 37.5098 73.2578 37.416 72.5781 37.2285C71.8984 37.0527 71.2363 36.7598 70.5918 36.3496C69.959 35.9395 69.4023 35.4355 68.9219 34.8379C68.4531 34.2285 68.0723 33.4727 67.7793 32.5703C67.498 31.6562 67.3574 30.6484 67.3574 29.5469C67.3574 27.0039 68.1367 24.9473 69.6953 23.377C71.2539 21.8066 73.1992 21.0215 75.5312 21.0215C77.1719 21.0215 78.5078 21.3789 79.5391 22.0938C80.582 22.7969 81.1035 23.6992 81.1035 24.8008C81.1035 25.4219 80.8984 25.9375 80.4883 26.3477C80.0781 26.7578 79.5742 26.9629 78.9766 26.9629C78.3438 26.9629 77.834 26.7812 77.4473 26.418C77.0605 26.043 76.8672 25.6094 76.8672 25.1172C76.8672 24.2266 77.3184 23.6641 78.2207 23.4297C78.1387 23.1602 77.875 22.8848 77.4297 22.6035C76.9844 22.3105 76.3516 22.1641 75.5312 22.1641C75.1094 22.1641 74.7109 22.2168 74.3359 22.3223C73.9609 22.416 73.5566 22.6211 73.123 22.9375C72.7012 23.2539 72.3379 23.6699 72.0332 24.1855C71.7402 24.7012 71.4941 25.4219 71.2949 26.3477C71.0957 27.2617 70.9961 28.3281 70.9961 29.5469C70.9961 30.3672 71.0781 31.1113 71.2422 31.7793C71.418 32.4473 71.6875 33.0508 72.0508 33.5898C72.4141 34.1289 72.9121 34.5508 73.5449 34.8555C74.1777 35.1602 74.9219 35.3125 75.7773 35.3125C76.3164 35.3125 76.8262 35.2422 77.3066 35.1016C77.7871 34.9492 78.1738 34.791 78.4668 34.627C78.7715 34.4629 79.0938 34.2168 79.4336 33.8887C79.7852 33.5488 80.0195 33.3086 80.1367 33.168C80.2539 33.0156 80.4473 32.7695 80.7168 32.4297ZM93.1445 36.2793C93.2148 36.4199 93.25 36.5664 93.25 36.7188C93.25 36.8359 93.2148 36.9648 93.1445 37.1055C91.5977 37.0352 90.0977 37 88.6445 37C87.2148 37 85.7266 37.0352 84.1797 37.1055C84.1328 36.918 84.1094 36.7891 84.1094 36.7188C84.1094 36.6602 84.1328 36.5137 84.1797 36.2793C84.5664 36.2324 84.8828 36.1855 85.1289 36.1387C85.375 36.0801 85.6797 35.9922 86.043 35.875C86.4062 35.7578 86.6816 35.5938 86.8691 35.3828C87.0566 35.1602 87.1562 34.8965 87.168 34.5918C87.2148 33.4316 87.2383 32.0254 87.2383 30.373C87.2383 29.8223 87.2324 28.8848 87.2207 27.5605C87.209 26.2363 87.2031 25.0762 87.2031 24.0801C86.5352 23.6699 85.4102 23.4297 83.8281 23.3594C83.7812 23.1719 83.7578 23.0254 83.7578 22.9199C83.7578 22.8496 83.7812 22.7207 83.8281 22.5332C86.1016 22.2988 88.082 21.8184 89.7695 21.0918C90.0625 21.209 90.2676 21.3613 90.3848 21.5488V24.3262C91.5215 23.3301 92.6113 22.5332 93.6543 21.9355C94.6973 21.3262 95.752 21.0215 96.8184 21.0215C98.1543 21.0215 99.0977 21.3965 99.6484 22.1465C100.211 22.8965 100.504 24.0684 100.527 25.6621L100.703 34.5918C100.715 34.8965 100.803 35.1602 100.967 35.3828C101.143 35.5938 101.389 35.7578 101.705 35.875C102.033 35.9922 102.303 36.0801 102.514 36.1387C102.725 36.1855 103 36.2324 103.34 36.2793C103.387 36.5137 103.41 36.6719 103.41 36.7539C103.41 36.8477 103.387 36.9648 103.34 37.1055C101.828 37.0352 100.434 37 99.1562 37C97.9141 37 96.5371 37.0352 95.0254 37.1055C94.9785 36.918 94.9551 36.7773 94.9551 36.6836C94.9551 36.6016 94.9785 36.4668 95.0254 36.2793C95.3301 36.2324 95.582 36.1855 95.7812 36.1387C95.9922 36.0801 96.2266 35.9922 96.4844 35.875C96.7539 35.7578 96.9531 35.5938 97.082 35.3828C97.2227 35.1602 97.293 34.8965 97.293 34.5918L97.3281 26.2422C97.3281 24.1211 96.6895 23.0605 95.4121 23.0605C94.2168 23.0605 92.541 23.8574 90.3848 25.4512C90.3848 28.8613 90.4316 31.9082 90.5254 34.5918C90.5371 34.8965 90.625 35.1602 90.7891 35.3828C90.9648 35.5938 91.2109 35.7578 91.5273 35.875C91.8438 35.9922 92.1074 36.0801 92.3184 36.1387C92.5293 36.1855 92.8047 36.2324 93.1445 36.2793ZM114.045 21.0215C115.205 21.0215 116.248 21.2266 117.174 21.6367C118.111 22.0469 118.908 22.6152 119.564 23.3418C120.221 24.0684 120.725 24.9414 121.076 25.9609C121.428 26.9688 121.604 28.0703 121.604 29.2656C121.604 31.7031 120.918 33.6836 119.547 35.207C118.188 36.7422 116.354 37.5098 114.045 37.5098C112.896 37.5098 111.854 37.3105 110.916 36.9121C109.99 36.502 109.199 35.9336 108.543 35.207C107.887 34.4688 107.377 33.5957 107.014 32.5879C106.662 31.5801 106.486 30.4727 106.486 29.2656C106.486 28.0703 106.662 26.9688 107.014 25.9609C107.365 24.9414 107.863 24.0684 108.508 23.3418C109.164 22.6152 109.961 22.0469 110.898 21.6367C111.836 21.2266 112.885 21.0215 114.045 21.0215ZM114.045 22.1641C112.85 22.1641 111.895 22.7441 111.18 23.9043C110.477 25.0645 110.125 26.8516 110.125 29.2656C110.125 31.6797 110.477 33.4668 111.18 34.627C111.895 35.7754 112.85 36.3496 114.045 36.3496C115.24 36.3496 116.189 35.7695 116.893 34.6094C117.607 33.4492 117.965 31.668 117.965 29.2656C117.965 28.0586 117.871 27.0098 117.684 26.1191C117.496 25.2285 117.232 24.4902 116.893 23.9043C116.553 23.3184 116.143 22.8848 115.662 22.6035C115.182 22.3105 114.643 22.1641 114.045 22.1641ZM124.926 11.7227C127.152 11.5117 129.127 11.0313 130.85 10.2812C131.166 10.4102 131.371 10.5684 131.465 10.7559C131.465 24.0332 131.512 31.9785 131.605 34.5918C131.617 34.8379 131.688 35.0605 131.816 35.2598C131.957 35.4473 132.109 35.5996 132.273 35.7168C132.438 35.8223 132.66 35.9219 132.941 36.0156C133.223 36.0977 133.439 36.1562 133.592 36.1914C133.756 36.2148 133.973 36.2441 134.242 36.2793C134.312 36.4199 134.348 36.5664 134.348 36.7188C134.348 36.8711 134.312 37 134.242 37.1055C132.695 37.0352 131.195 37 129.742 37C128.312 37 126.824 37.0352 125.277 37.1055C125.23 36.918 125.207 36.7891 125.207 36.7188C125.207 36.6602 125.23 36.5137 125.277 36.2793C125.664 36.2324 125.975 36.1855 126.209 36.1387C126.455 36.0801 126.76 35.9922 127.123 35.875C127.498 35.7578 127.779 35.5938 127.967 35.3828C128.154 35.1602 128.254 34.8965 128.266 34.5918C128.312 33.4316 128.336 30.8359 128.336 26.8047C128.336 24.9414 128.33 22.4043 128.318 19.1934C128.307 15.9824 128.301 14.0078 128.301 13.2695C127.633 12.8828 126.508 12.6426 124.926 12.5488C124.867 12.3965 124.838 12.2559 124.838 12.127C124.838 12.0098 124.867 11.875 124.926 11.7227ZM145.158 21.0215C146.318 21.0215 147.361 21.2266 148.287 21.6367C149.225 22.0469 150.021 22.6152 150.678 23.3418C151.334 24.0684 151.838 24.9414 152.189 25.9609C152.541 26.9688 152.717 28.0703 152.717 29.2656C152.717 31.7031 152.031 33.6836 150.66 35.207C149.301 36.7422 147.467 37.5098 145.158 37.5098C144.01 37.5098 142.967 37.3105 142.029 36.9121C141.104 36.502 140.312 35.9336 139.656 35.207C139 34.4688 138.49 33.5957 138.127 32.5879C137.775 31.5801 137.6 30.4727 137.6 29.2656C137.6 28.0703 137.775 26.9688 138.127 25.9609C138.479 24.9414 138.977 24.0684 139.621 23.3418C140.277 22.6152 141.074 22.0469 142.012 21.6367C142.949 21.2266 143.998 21.0215 145.158 21.0215ZM145.158 22.1641C143.963 22.1641 143.008 22.7441 142.293 23.9043C141.59 25.0645 141.238 26.8516 141.238 29.2656C141.238 31.6797 141.59 33.4668 142.293 34.627C143.008 35.7754 143.963 36.3496 145.158 36.3496C146.354 36.3496 147.303 35.7695 148.006 34.6094C148.721 33.4492 149.078 31.668 149.078 29.2656C149.078 28.0586 148.984 27.0098 148.797 26.1191C148.609 25.2285 148.346 24.4902 148.006 23.9043C147.666 23.3184 147.256 22.8848 146.775 22.6035C146.295 22.3105 145.756 22.1641 145.158 22.1641ZM169.715 26.5234C169.715 28.375 169.117 29.8574 167.922 30.9707C166.727 32.084 165.273 32.6406 163.562 32.6406C162.754 32.6406 161.998 32.582 161.295 32.4648C160.592 32.9102 160.24 33.4609 160.24 34.1172C160.24 34.6445 160.568 35.0312 161.225 35.2773C161.893 35.5117 163.029 35.6289 164.635 35.6289C164.893 35.6289 165.379 35.6172 166.094 35.5938C166.809 35.5703 167.377 35.5586 167.799 35.5586C171.068 35.5586 172.703 36.9004 172.703 39.584C172.703 40.3457 172.475 41.1484 172.018 41.9922C171.572 42.8359 170.957 43.6211 170.172 44.3477C169.398 45.0859 168.42 45.6953 167.236 46.1758C166.064 46.6562 164.828 46.8965 163.527 46.8965C161.477 46.8965 159.924 46.5156 158.869 45.7539C157.814 45.0039 157.287 44.0664 157.287 42.9414C157.287 42.1562 157.574 41.3711 158.148 40.5859C158.734 39.8008 159.602 39.0977 160.75 38.4766C158.488 38.1484 157.357 37.2695 157.357 35.8398C157.357 35.1602 157.609 34.5215 158.113 33.9238C158.629 33.3145 159.326 32.6816 160.205 32.0254C159.01 31.3574 158.184 30.5898 157.727 29.7227C157.27 28.8555 157.041 27.8711 157.041 26.7695C157.041 26.0898 157.199 25.4102 157.516 24.7305C157.844 24.0391 158.283 23.4238 158.834 22.8848C159.385 22.334 160.059 21.8887 160.855 21.5488C161.664 21.1973 162.514 21.0215 163.404 21.0215C164.225 21.0215 164.898 21.0859 165.426 21.2148C165.953 21.332 166.609 21.543 167.395 21.8477C168.18 22.1523 168.918 22.4043 169.609 22.6035C169.668 22.1465 169.85 21.7598 170.154 21.4434C170.459 21.1152 170.852 20.9512 171.332 20.9512C171.766 20.9512 172.152 21.1328 172.492 21.4961C172.844 21.8594 173.02 22.2754 173.02 22.7441C173.02 23.2246 172.867 23.6406 172.562 23.9922C172.27 24.332 171.895 24.502 171.438 24.502C171.168 24.502 170.898 24.4551 170.629 24.3613C170.359 24.2676 170.137 24.1738 169.961 24.0801C169.797 23.9746 169.551 23.8105 169.223 23.5879C168.895 23.3535 168.637 23.1777 168.449 23.0605L168.379 23.1484C168.812 23.5352 169.141 24.0332 169.363 24.6426C169.598 25.2402 169.715 25.8672 169.715 26.5234ZM160.539 41.6758C160.539 42.1445 160.609 42.5898 160.75 43.0117C160.891 43.4336 161.113 43.832 161.418 44.207C161.723 44.582 162.15 44.875 162.701 45.0859C163.264 45.3086 163.92 45.4199 164.67 45.4199C165.631 45.4199 166.48 45.2676 167.219 44.9629C167.969 44.6699 168.537 44.3008 168.924 43.8555C169.311 43.4102 169.598 42.9766 169.785 42.5547C169.973 42.1445 170.066 41.7695 170.066 41.4297C170.066 40.9609 170.025 40.5625 169.943 40.2344C169.861 39.918 169.703 39.6074 169.469 39.3027C169.246 39.0098 168.895 38.7871 168.414 38.6348C167.934 38.4824 167.324 38.4062 166.586 38.4062C166.188 38.4062 165.443 38.4297 164.354 38.4766C163.264 38.5234 162.566 38.5469 162.262 38.5469C161.723 38.9219 161.301 39.3848 160.996 39.9355C160.691 40.4863 160.539 41.0664 160.539 41.6758ZM160.609 26.8047C160.609 29.9336 161.541 31.498 163.404 31.498C164.295 31.498 164.975 31.1113 165.443 30.3379C165.912 29.5645 166.146 28.2812 166.146 26.4883C166.146 25.668 166.053 24.959 165.865 24.3613C165.678 23.752 165.432 23.3008 165.127 23.0078C164.834 22.7031 164.535 22.4863 164.23 22.3574C163.938 22.2285 163.639 22.1641 163.334 22.1641C162.549 22.1641 161.898 22.5332 161.383 23.2715C160.867 24.0098 160.609 25.1875 160.609 26.8047ZM174.742 22.5332C177.016 22.2988 178.996 21.8184 180.684 21.0918C180.977 21.209 181.182 21.3613 181.299 21.5488C181.299 27.6309 181.346 31.9785 181.439 34.5918C181.451 34.8965 181.539 35.1602 181.703 35.3828C181.879 35.5938 182.125 35.7578 182.441 35.875C182.758 35.9922 183.021 36.0801 183.232 36.1387C183.443 36.1855 183.719 36.2324 184.059 36.2793C184.129 36.4199 184.164 36.5664 184.164 36.7188C184.164 36.8711 184.129 37 184.059 37.1055C182.512 37.0352 181.012 37 179.559 37C178.129 37 176.641 37.0352 175.094 37.1055C175.047 36.918 175.023 36.7891 175.023 36.7188C175.023 36.6602 175.047 36.5137 175.094 36.2793C175.48 36.2324 175.797 36.1855 176.043 36.1387C176.289 36.0801 176.594 35.9922 176.957 35.875C177.32 35.7578 177.596 35.5938 177.783 35.3828C177.971 35.1602 178.07 34.8965 178.082 34.5918C178.129 33.4316 178.152 32.0254 178.152 30.373C178.152 29.8223 178.146 28.8848 178.135 27.5605C178.123 26.2363 178.117 25.0762 178.117 24.0801C177.449 23.6699 176.324 23.4297 174.742 23.3594C174.695 23.1719 174.672 23.0254 174.672 22.9199C174.672 22.8496 174.695 22.7207 174.742 22.5332ZM177.502 15.1855C177.502 14.5879 177.713 14.0781 178.135 13.6562C178.568 13.2344 179.078 13.0234 179.664 13.0234C180.262 13.0234 180.771 13.2344 181.193 13.6562C181.615 14.0781 181.826 14.5879 181.826 15.1855C181.826 15.7715 181.615 16.2812 181.193 16.7148C180.771 17.1367 180.262 17.3477 179.664 17.3477C179.078 17.3477 178.568 17.1367 178.135 16.7148C177.713 16.2812 177.502 15.7715 177.502 15.1855ZM188.242 25.4512C188.242 24.1621 188.828 23.1016 190 22.2695C191.184 21.4375 192.578 21.0215 194.184 21.0215C196.152 21.0215 197.535 21.4141 198.332 22.1992C199.141 22.9844 199.545 24.3086 199.545 26.1719V33.4668C199.545 34.123 199.785 34.4512 200.266 34.4512C200.652 34.4512 201.145 33.9824 201.742 33.0449C202.164 33.0801 202.451 33.2676 202.604 33.6074C202.521 33.7246 202.381 33.9355 202.182 34.2402C201.982 34.5449 201.836 34.7617 201.742 34.8906C201.648 35.0195 201.502 35.2188 201.303 35.4883C201.104 35.7461 200.939 35.9395 200.811 36.0684C200.693 36.1973 200.529 36.3496 200.318 36.5254C200.119 36.7012 199.932 36.8359 199.756 36.9297C199.592 37.0117 199.398 37.082 199.176 37.1406C198.953 37.2109 198.73 37.2461 198.508 37.2461C197.922 37.2461 197.436 37.0352 197.049 36.6133C196.674 36.1914 196.451 35.541 196.381 34.6621C196.369 34.6738 196.188 34.8438 195.836 35.1719C195.484 35.5 195.238 35.7227 195.098 35.8398C194.969 35.9453 194.717 36.1387 194.342 36.4199C193.979 36.6895 193.668 36.8828 193.41 37C193.152 37.1172 192.83 37.2285 192.443 37.334C192.057 37.4512 191.676 37.5098 191.301 37.5098C190.703 37.5098 190.17 37.4277 189.701 37.2637C189.244 37.0996 188.887 36.9004 188.629 36.666C188.371 36.4316 188.16 36.1621 187.996 35.8574C187.832 35.541 187.721 35.2539 187.662 34.9961C187.615 34.7383 187.592 34.4805 187.592 34.2227C187.592 33.4375 187.721 32.7754 187.979 32.2363C188.248 31.6973 188.74 31.1934 189.455 30.7246C190.182 30.2559 191.072 29.8398 192.127 29.4766C193.182 29.1133 194.6 28.7031 196.381 28.2461V25.8027C196.381 24.6191 196.117 23.7344 195.59 23.1484C195.074 22.5625 194.377 22.2695 193.498 22.2695C192.713 22.2695 192.051 22.4277 191.512 22.7441C190.984 23.0488 190.662 23.4062 190.545 23.8164C191.693 23.9922 192.268 24.6191 192.268 25.6973C192.268 26.1895 192.092 26.623 191.74 26.998C191.389 27.373 190.896 27.5605 190.264 27.5605C189.736 27.5605 189.268 27.3789 188.857 27.0156C188.447 26.6406 188.242 26.1191 188.242 25.4512ZM196.381 33.0449V29.3711C195.303 29.6172 194.412 29.8867 193.709 30.1797C193.006 30.4609 192.467 30.7715 192.092 31.1113C191.729 31.4512 191.477 31.8027 191.336 32.166C191.195 32.5176 191.125 32.9277 191.125 33.3965C191.125 33.9824 191.295 34.4453 191.635 34.7852C191.986 35.1133 192.414 35.2773 192.918 35.2773C194.09 35.2773 195.244 34.5332 196.381 33.0449ZM211.639 37.5098C211.064 37.5098 210.543 37.4629 210.074 37.3691C209.617 37.2754 209.26 37.1758 209.002 37.0703C208.756 36.9648 208.422 36.8066 208 36.5957C207.543 36.5957 206.869 36.7656 205.979 37.1055C205.826 37.0117 205.721 36.9062 205.662 36.7891C205.721 36.6016 205.791 35.9629 205.873 34.873C205.967 33.7832 206.014 32.8105 206.014 31.9551C206.166 31.8848 206.441 31.8496 206.84 31.8496C207.051 32.5293 207.268 33.1094 207.49 33.5898C207.725 34.0703 208.018 34.5391 208.369 34.9961C208.732 35.4414 209.166 35.7812 209.67 36.0156C210.186 36.2383 210.771 36.3496 211.428 36.3496C212.447 36.3496 213.244 36.0859 213.818 35.5586C214.404 35.0312 214.697 34.4336 214.697 33.7656C214.697 33.2617 214.615 32.834 214.451 32.4824C214.287 32.1309 213.918 31.7617 213.344 31.375C212.781 30.9766 211.973 30.584 210.918 30.1973C210.262 29.9629 209.705 29.7461 209.248 29.5469C208.791 29.3477 208.316 29.1016 207.824 28.8086C207.344 28.5156 206.957 28.2168 206.664 27.9121C206.371 27.5957 206.131 27.2207 205.943 26.7871C205.756 26.3535 205.662 25.8789 205.662 25.3633C205.662 24.9883 205.703 24.6191 205.785 24.2559C205.879 23.8809 206.049 23.4941 206.295 23.0957C206.553 22.6973 206.869 22.3516 207.244 22.0586C207.631 21.7539 208.141 21.5078 208.773 21.3203C209.418 21.1211 210.145 21.0215 210.953 21.0215C211.281 21.0215 211.568 21.0391 211.814 21.0742C212.072 21.1094 212.377 21.1738 212.729 21.2676C213.092 21.3496 213.291 21.3965 213.326 21.4082C213.584 21.3496 213.848 21.2734 214.117 21.1797C214.398 21.0859 214.557 21.0332 214.592 21.0215H215.049C215.33 22.709 215.693 24.1445 216.139 25.3281C215.998 25.4805 215.77 25.5566 215.453 25.5566C214.48 24.3848 213.648 23.5293 212.957 22.9902C212.277 22.4395 211.504 22.1641 210.637 22.1641C209.957 22.1641 209.359 22.3164 208.844 22.6211C208.328 22.9258 208.07 23.3887 208.07 24.0098C208.07 24.7949 208.381 25.4102 209.002 25.8555C209.635 26.3008 210.801 26.8691 212.5 27.5605C213.285 27.877 213.9 28.1406 214.346 28.3516C214.803 28.5625 215.26 28.8145 215.717 29.1074C216.174 29.4004 216.508 29.7051 216.719 30.0215C216.941 30.3262 217.123 30.6953 217.264 31.1289C217.404 31.5625 217.475 32.0664 217.475 32.6406C217.475 33.8828 216.9 35.0078 215.752 36.0156C214.615 37.0117 213.244 37.5098 211.639 37.5098ZM245.67 43.9434C245.67 44.1543 245.705 44.3418 245.775 44.5059C245.857 44.6699 245.98 44.8105 246.145 44.9277C246.32 45.0449 246.473 45.1387 246.602 45.209C246.742 45.291 246.941 45.3613 247.199 45.4199C247.469 45.4902 247.65 45.5312 247.744 45.543C247.85 45.5664 248.031 45.6016 248.289 45.6484C248.359 45.7891 248.395 45.9297 248.395 46.0703C248.395 46.2109 248.359 46.3457 248.289 46.4746C246.484 46.3926 244.984 46.3516 243.789 46.3516C242.266 46.3516 240.42 46.3926 238.252 46.4746C238.205 46.2637 238.182 46.1289 238.182 46.0703C238.182 46.0234 238.205 45.8828 238.252 45.6484C238.627 45.6133 238.908 45.584 239.096 45.5605C239.283 45.5371 239.57 45.4902 239.957 45.4199C240.344 45.3613 240.643 45.291 240.854 45.209C241.076 45.1387 241.316 45.0449 241.574 44.9277C241.832 44.8105 242.02 44.6699 242.137 44.5059C242.254 44.3418 242.312 44.1543 242.312 43.9434C242.359 42.7949 242.383 40.2051 242.383 36.1738V34.3633C240.402 36.4609 238.58 37.5098 236.916 37.5098C235.111 37.5098 233.641 36.8301 232.504 35.4707C231.367 34.1113 230.799 32.2598 230.799 29.916C230.799 29.1074 230.893 28.2988 231.08 27.4902C231.268 26.6816 231.578 25.8848 232.012 25.0996C232.445 24.3145 232.979 23.623 233.611 23.0254C234.244 22.4277 235.047 21.9473 236.02 21.584C236.992 21.209 238.07 21.0215 239.254 21.0215C239.992 21.0215 241.023 21.1973 242.348 21.5488C243.684 21.9004 244.562 22.1055 244.984 22.1641C245.242 22.293 245.424 22.498 245.529 22.7793C245.529 34.2754 245.576 41.3301 245.67 43.9434ZM238.604 35.207C239.705 35.207 240.965 34.4746 242.383 33.0098C242.359 30.7012 242.348 27.8418 242.348 24.4316C241.527 22.9199 240.291 22.1641 238.639 22.1641C238.287 22.1641 237.936 22.2168 237.584 22.3223C237.232 22.4277 236.857 22.6387 236.459 22.9551C236.061 23.2715 235.709 23.6758 235.404 24.168C235.111 24.6602 234.865 25.3457 234.666 26.2246C234.467 27.0918 234.367 28.0938 234.367 29.2305C234.367 30.9648 234.725 32.3945 235.439 33.5195C236.166 34.6445 237.221 35.207 238.604 35.207ZM249.818 21.4082C250.24 21.4316 250.662 21.4551 251.084 21.4785C251.506 21.502 251.84 21.5195 252.086 21.5312C252.332 21.543 252.561 21.5488 252.771 21.5488C252.947 21.5488 253.152 21.543 253.387 21.5312C253.621 21.5195 253.938 21.502 254.336 21.4785C254.746 21.4551 255.139 21.4316 255.514 21.4082C255.725 21.4785 255.895 21.6602 256.023 21.9531C256.012 22.0469 255.988 22.1875 255.953 22.375C255.93 22.5508 255.906 22.7676 255.883 23.0254C255.871 23.2715 255.865 23.5762 255.865 23.9395L255.83 32.2891C255.83 34.3984 256.469 35.4531 257.746 35.4531C258.93 35.4531 260.611 34.6738 262.791 33.1152C262.791 29.623 262.738 26.5645 262.633 23.9395C262.633 23.7285 262.592 23.541 262.51 23.377C262.428 23.2129 262.299 23.0723 262.123 22.9551C261.959 22.8379 261.807 22.7441 261.666 22.6738C261.537 22.5918 261.344 22.5215 261.086 22.4629C260.828 22.3926 260.646 22.3516 260.541 22.3398C260.436 22.3164 260.26 22.2812 260.014 22.2344C259.967 22.0469 259.943 21.9062 259.943 21.8125C259.943 21.7305 259.967 21.5957 260.014 21.4082C260.424 21.4316 260.84 21.4551 261.262 21.4785C261.695 21.502 262.035 21.5195 262.281 21.5312C262.527 21.543 262.756 21.5488 262.967 21.5488C263.143 21.5488 263.348 21.543 263.582 21.5312C263.816 21.5195 264.133 21.502 264.531 21.4785C264.941 21.4551 265.334 21.4316 265.709 21.4082C265.768 21.4434 265.814 21.4785 265.85 21.5137C265.896 21.5371 265.932 21.5723 265.955 21.6191C265.99 21.6543 266.014 21.6836 266.025 21.707C266.037 21.7188 266.055 21.7598 266.078 21.8301C266.102 21.8887 266.119 21.9297 266.131 21.9531C266.037 22.5859 265.99 23.248 265.99 23.9395C265.92 25.6621 265.885 27.0625 265.885 28.1406C265.885 28.7031 265.896 29.6465 265.92 30.9707C265.943 32.2949 265.955 33.4551 265.955 34.4512C266.623 34.8379 267.748 35.0781 269.33 35.1719C269.389 35.4648 269.418 35.6172 269.418 35.6289C269.418 35.6992 269.389 35.8223 269.33 35.998C267.115 36.209 265.135 36.6895 263.389 37.4395C263.084 37.3105 262.885 37.1523 262.791 36.9648V34.2227C261.619 35.2305 260.512 36.0332 259.469 36.6309C258.438 37.2168 257.395 37.5098 256.34 37.5098C255.004 37.5098 254.055 37.1348 253.492 36.3848C252.941 35.6348 252.654 34.457 252.631 32.8516L252.49 23.9395C252.467 23.6699 252.414 23.4707 252.332 23.3418C252.262 23.2012 252.139 23.0723 251.963 22.9551C251.799 22.8379 251.646 22.7441 251.506 22.6738C251.365 22.5918 251.166 22.5215 250.908 22.4629C250.65 22.3926 250.469 22.3516 250.363 22.3398C250.258 22.3164 250.076 22.2812 249.818 22.2344C249.771 22.0469 249.748 21.9062 249.748 21.8125C249.748 21.7305 249.771 21.5957 249.818 21.4082ZM285.801 27.6836H276.221C276.174 28.3867 276.15 29.0078 276.15 29.5469C276.186 31.293 276.695 32.6934 277.68 33.748C278.664 34.791 279.982 35.3125 281.635 35.3125C282.08 35.3125 282.496 35.2656 282.883 35.1719C283.27 35.0664 283.586 34.9492 283.832 34.8203C284.09 34.6914 284.354 34.5039 284.623 34.2578C284.893 34.0117 285.086 33.8184 285.203 33.6777C285.332 33.5254 285.502 33.3027 285.713 33.0098C285.924 32.7051 286.064 32.5117 286.135 32.4297C286.416 32.4883 286.645 32.6172 286.82 32.8164C286.234 34.3867 285.326 35.5645 284.096 36.3496C282.865 37.123 281.529 37.5098 280.088 37.5098C279.373 37.5098 278.676 37.416 277.996 37.2285C277.328 37.0527 276.678 36.7598 276.045 36.3496C275.412 35.9395 274.861 35.4355 274.393 34.8379C273.924 34.2285 273.549 33.4727 273.268 32.5703C272.986 31.6562 272.846 30.6484 272.846 29.5469C272.846 27.0742 273.602 25.0352 275.113 23.4297C276.625 21.8242 278.482 21.0215 280.686 21.0215C281.658 21.0215 282.502 21.1621 283.217 21.4434C283.943 21.7129 284.506 22.082 284.904 22.5508C285.314 23.0195 285.613 23.5352 285.801 24.0977C286 24.6484 286.1 25.2402 286.1 25.873C286.1 26.459 286 27.0625 285.801 27.6836ZM280.264 22.1641C279.455 22.1641 278.688 22.5215 277.961 23.2363C277.246 23.9512 276.73 25.0352 276.414 26.4883H282.742C282.859 26.043 282.918 25.6562 282.918 25.3281C282.918 24.4141 282.707 23.6582 282.285 23.0605C281.863 22.4629 281.189 22.1641 280.264 22.1641ZM298.65 21.4082C299.072 21.4316 299.494 21.4551 299.916 21.4785C300.338 21.502 300.672 21.5195 300.918 21.5312C301.164 21.543 301.393 21.5488 301.604 21.5488C301.779 21.5488 301.984 21.543 302.219 21.5312C302.453 21.5195 302.77 21.502 303.168 21.4785C303.578 21.4551 303.971 21.4316 304.346 21.4082C304.557 21.4785 304.727 21.6602 304.855 21.9531C304.844 22.0469 304.82 22.1875 304.785 22.375C304.762 22.5508 304.738 22.7676 304.715 23.0254C304.703 23.2715 304.697 23.5762 304.697 23.9395L304.662 32.2891C304.662 34.3984 305.301 35.4531 306.578 35.4531C307.762 35.4531 309.443 34.6738 311.623 33.1152C311.623 29.623 311.57 26.5645 311.465 23.9395C311.465 23.7285 311.424 23.541 311.342 23.377C311.26 23.2129 311.131 23.0723 310.955 22.9551C310.791 22.8379 310.639 22.7441 310.498 22.6738C310.369 22.5918 310.176 22.5215 309.918 22.4629C309.66 22.3926 309.479 22.3516 309.373 22.3398C309.268 22.3164 309.092 22.2812 308.846 22.2344C308.799 22.0469 308.775 21.9062 308.775 21.8125C308.775 21.7305 308.799 21.5957 308.846 21.4082C309.256 21.4316 309.672 21.4551 310.094 21.4785C310.527 21.502 310.867 21.5195 311.113 21.5312C311.359 21.543 311.588 21.5488 311.799 21.5488C311.975 21.5488 312.18 21.543 312.414 21.5312C312.648 21.5195 312.965 21.502 313.363 21.4785C313.773 21.4551 314.166 21.4316 314.541 21.4082C314.6 21.4434 314.646 21.4785 314.682 21.5137C314.729 21.5371 314.764 21.5723 314.787 21.6191C314.822 21.6543 314.846 21.6836 314.857 21.707C314.869 21.7188 314.887 21.7598 314.91 21.8301C314.934 21.8887 314.951 21.9297 314.963 21.9531C314.869 22.5859 314.822 23.248 314.822 23.9395C314.752 25.6621 314.717 27.0625 314.717 28.1406C314.717 28.7031 314.729 29.6465 314.752 30.9707C314.775 32.2949 314.787 33.4551 314.787 34.4512C315.455 34.8379 316.58 35.0781 318.162 35.1719C318.221 35.4648 318.25 35.6172 318.25 35.6289C318.25 35.6992 318.221 35.8223 318.162 35.998C315.947 36.209 313.967 36.6895 312.221 37.4395C311.916 37.3105 311.717 37.1523 311.623 36.9648V34.2227C310.451 35.2305 309.344 36.0332 308.301 36.6309C307.27 37.2168 306.227 37.5098 305.172 37.5098C303.836 37.5098 302.887 37.1348 302.324 36.3848C301.773 35.6348 301.486 34.457 301.463 32.8516L301.322 23.9395C301.299 23.6699 301.246 23.4707 301.164 23.3418C301.094 23.2012 300.971 23.0723 300.795 22.9551C300.631 22.8379 300.479 22.7441 300.338 22.6738C300.197 22.5918 299.998 22.5215 299.74 22.4629C299.482 22.3926 299.301 22.3516 299.195 22.3398C299.09 22.3164 298.908 22.2812 298.65 22.2344C298.604 22.0469 298.58 21.9062 298.58 21.8125C298.58 21.7305 298.604 21.5957 298.65 21.4082ZM327.654 37.5098C327.08 37.5098 326.559 37.4629 326.09 37.3691C325.633 37.2754 325.275 37.1758 325.018 37.0703C324.771 36.9648 324.438 36.8066 324.016 36.5957C323.559 36.5957 322.885 36.7656 321.994 37.1055C321.842 37.0117 321.736 36.9062 321.678 36.7891C321.736 36.6016 321.807 35.9629 321.889 34.873C321.982 33.7832 322.029 32.8105 322.029 31.9551C322.182 31.8848 322.457 31.8496 322.855 31.8496C323.066 32.5293 323.283 33.1094 323.506 33.5898C323.74 34.0703 324.033 34.5391 324.385 34.9961C324.748 35.4414 325.182 35.7812 325.686 36.0156C326.201 36.2383 326.787 36.3496 327.443 36.3496C328.463 36.3496 329.26 36.0859 329.834 35.5586C330.42 35.0312 330.713 34.4336 330.713 33.7656C330.713 33.2617 330.631 32.834 330.467 32.4824C330.303 32.1309 329.934 31.7617 329.359 31.375C328.797 30.9766 327.988 30.584 326.934 30.1973C326.277 29.9629 325.721 29.7461 325.264 29.5469C324.807 29.3477 324.332 29.1016 323.84 28.8086C323.359 28.5156 322.973 28.2168 322.68 27.9121C322.387 27.5957 322.146 27.2207 321.959 26.7871C321.771 26.3535 321.678 25.8789 321.678 25.3633C321.678 24.9883 321.719 24.6191 321.801 24.2559C321.895 23.8809 322.064 23.4941 322.311 23.0957C322.568 22.6973 322.885 22.3516 323.26 22.0586C323.646 21.7539 324.156 21.5078 324.789 21.3203C325.434 21.1211 326.16 21.0215 326.969 21.0215C327.297 21.0215 327.584 21.0391 327.83 21.0742C328.088 21.1094 328.393 21.1738 328.744 21.2676C329.107 21.3496 329.307 21.3965 329.342 21.4082C329.6 21.3496 329.863 21.2734 330.133 21.1797C330.414 21.0859 330.572 21.0332 330.607 21.0215H331.064C331.346 22.709 331.709 24.1445 332.154 25.3281C332.014 25.4805 331.785 25.5566 331.469 25.5566C330.496 24.3848 329.664 23.5293 328.973 22.9902C328.293 22.4395 327.52 22.1641 326.652 22.1641C325.973 22.1641 325.375 22.3164 324.859 22.6211C324.344 22.9258 324.086 23.3887 324.086 24.0098C324.086 24.7949 324.396 25.4102 325.018 25.8555C325.65 26.3008 326.816 26.8691 328.516 27.5605C329.301 27.877 329.916 28.1406 330.361 28.3516C330.818 28.5625 331.275 28.8145 331.732 29.1074C332.189 29.4004 332.523 29.7051 332.734 30.0215C332.957 30.3262 333.139 30.6953 333.279 31.1289C333.42 31.5625 333.49 32.0664 333.49 32.6406C333.49 33.8828 332.916 35.0078 331.768 36.0156C330.631 37.0117 329.26 37.5098 327.654 37.5098ZM345.021 21.0215C346.182 21.0215 347.225 21.2266 348.15 21.6367C349.088 22.0469 349.885 22.6152 350.541 23.3418C351.197 24.0684 351.701 24.9414 352.053 25.9609C352.404 26.9688 352.58 28.0703 352.58 29.2656C352.58 31.7031 351.895 33.6836 350.523 35.207C349.164 36.7422 347.33 37.5098 345.021 37.5098C343.873 37.5098 342.83 37.3105 341.893 36.9121C340.967 36.502 340.176 35.9336 339.52 35.207C338.863 34.4688 338.354 33.5957 337.99 32.5879C337.639 31.5801 337.463 30.4727 337.463 29.2656C337.463 28.0703 337.639 26.9688 337.99 25.9609C338.342 24.9414 338.84 24.0684 339.484 23.3418C340.141 22.6152 340.938 22.0469 341.875 21.6367C342.812 21.2266 343.861 21.0215 345.021 21.0215ZM345.021 22.1641C343.826 22.1641 342.871 22.7441 342.156 23.9043C341.453 25.0645 341.102 26.8516 341.102 29.2656C341.102 31.6797 341.453 33.4668 342.156 34.627C342.871 35.7754 343.826 36.3496 345.021 36.3496C346.217 36.3496 347.166 35.7695 347.869 34.6094C348.584 33.4492 348.941 31.668 348.941 29.2656C348.941 28.0586 348.848 27.0098 348.66 26.1191C348.473 25.2285 348.209 24.4902 347.869 23.9043C347.529 23.3184 347.119 22.8848 346.639 22.6035C346.158 22.3105 345.619 22.1641 345.021 22.1641ZM357.625 23.4648C357.625 23.1602 357.684 22.873 357.801 22.6035C357.918 22.334 358.076 22.0996 358.275 21.9004C358.475 21.7012 358.703 21.5488 358.961 21.4434C359.23 21.3262 359.518 21.2676 359.822 21.2676C360.115 21.2676 360.396 21.3262 360.666 21.4434C360.936 21.5605 361.17 21.7188 361.369 21.918C361.568 22.1172 361.727 22.3516 361.844 22.6211C361.961 22.8906 362.02 23.1719 362.02 23.4648C362.02 23.7578 361.961 24.0391 361.844 24.3086C361.738 24.5664 361.586 24.8008 361.387 25.0117C361.188 25.2109 360.953 25.3691 360.684 25.4863C360.414 25.6035 360.127 25.6621 359.822 25.6621C359.518 25.6621 359.23 25.6035 358.961 25.4863C358.703 25.3691 358.475 25.2109 358.275 25.0117C358.076 24.8125 357.918 24.584 357.801 24.3262C357.684 24.0566 357.625 23.7695 357.625 23.4648ZM359.822 33.1152C360.115 33.1152 360.396 33.1738 360.666 33.291C360.936 33.4082 361.17 33.5664 361.369 33.7656C361.568 33.9648 361.727 34.1992 361.844 34.4688C361.961 34.7383 362.02 35.0195 362.02 35.3125C362.02 35.6055 361.961 35.8867 361.844 36.1562C361.738 36.4141 361.586 36.6484 361.387 36.8594C361.188 37.0586 360.953 37.2168 360.684 37.334C360.414 37.4512 360.127 37.5098 359.822 37.5098C359.518 37.5098 359.23 37.4512 358.961 37.334C358.691 37.2285 358.457 37.0762 358.258 36.877C358.059 36.6777 357.9 36.4434 357.783 36.1738C357.678 35.9043 357.625 35.6172 357.625 35.3125C357.625 35.0078 357.684 34.7207 357.801 34.4512C357.918 34.1816 358.076 33.9473 358.275 33.748C358.475 33.5488 358.703 33.3965 358.961 33.291C359.23 33.1738 359.518 33.1152 359.822 33.1152Z" fill="#BF91F3"/>
</svg>
